{"glyphs":{"0":{"ha":809,"x_min":58,"x_max":750,"o":"m 58 511 q 148 898 58 757 q 406 1039 238 1039 q 661 898 572 1039 q 750 511 750 757 q 661 123 750 264 q 406 -18 572 -18 q 216 47 294 -18 q 98 230 137 112 q 58 511 58 349 m 129 511 q 200 171 129 294 q 406 47 271 47 q 610 171 538 47 q 681 511 681 295 q 610 850 681 727 q 406 974 538 974 q 253 917 315 974 q 159 756 190 859 q 129 511 129 654 z "},"1":{"ha":487,"x_min":41,"x_max":366,"o":"m 41 793 l 359 1039 l 366 1039 l 366 0 l 296 0 l 296 904 l 77 733 l 41 793 z "},"2":{"ha":730,"x_min":90,"x_max":679,"o":"m 90 798 q 187 977 115 914 q 376 1039 259 1039 q 581 960 501 1039 q 661 753 661 880 q 629 578 661 652 q 522 412 597 503 l 233 65 l 679 65 l 679 0 l 98 0 l 98 8 l 467 454 q 563 603 535 537 q 591 754 591 668 q 531 915 591 856 q 376 974 471 974 q 230 927 284 974 q 154 783 175 880 l 90 798 z "},"3":{"ha":728,"x_min":69,"x_max":690,"o":"m 69 201 l 132 222 q 229 93 170 138 q 389 47 288 47 q 556 112 492 47 q 621 282 621 176 q 549 444 621 379 q 366 509 477 509 l 250 509 l 250 572 l 370 572 q 470 592 425 572 q 547 657 516 612 q 578 770 578 703 q 520 918 578 862 q 372 974 463 974 q 144 807 212 974 l 83 833 q 374 1039 165 1039 q 570 965 494 1039 q 647 768 647 890 q 489 542 647 600 q 636 445 583 513 q 690 282 690 376 q 607 64 690 147 q 389 -18 524 -18 q 272 -3 323 -18 q 182 43 220 13 q 118 111 144 73 q 69 201 92 149 z "},"4":{"ha":743,"x_min":32,"x_max":717,"o":"m 32 235 l 32 240 l 549 1023 l 555 1023 l 555 300 l 717 300 l 717 235 l 555 235 l 555 0 l 486 0 l 486 235 l 32 235 m 151 300 l 486 300 l 486 818 l 151 300 z "},"5":{"ha":733,"x_min":69,"x_max":686,"o":"m 69 193 l 131 221 q 223 92 166 137 q 378 47 280 47 q 550 119 483 47 q 616 300 616 191 q 550 478 616 409 q 372 547 483 547 q 157 473 258 547 l 123 489 l 123 1021 l 621 1021 l 621 956 l 193 956 l 193 566 q 375 612 277 612 q 601 524 516 612 q 686 298 686 436 q 602 73 686 165 q 380 -18 518 -18 q 267 -3 317 -18 q 180 41 216 12 q 117 107 143 71 q 69 193 91 144 z "},"6":{"ha":737,"x_min":50,"x_max":686,"o":"m 50 310 q 121 521 50 433 l 463 1021 l 543 1021 l 272 623 q 368 637 320 637 q 594 544 501 637 q 686 310 686 451 q 594 75 686 168 q 368 -18 501 -18 q 143 75 235 -18 q 50 310 50 168 m 121 310 q 192 122 121 196 q 368 47 264 47 q 544 122 472 47 q 616 310 616 196 q 544 498 616 423 q 368 574 472 574 q 192 498 264 574 q 121 310 121 423 z "},"7":{"ha":733,"x_min":41,"x_max":699,"o":"m 41 956 l 41 1021 l 699 1021 l 699 1013 l 161 0 l 83 0 l 595 956 l 41 956 z "},"8":{"ha":737,"x_min":45,"x_max":681,"o":"m 45 277 q 98 441 45 369 q 237 543 151 513 q 133 637 172 574 q 94 781 94 700 q 172 965 94 892 q 361 1039 250 1039 q 551 965 473 1039 q 629 781 629 892 q 590 637 629 700 q 486 543 551 574 q 627 440 573 511 q 681 277 681 368 q 587 66 681 151 q 361 -18 494 -18 q 202 20 275 -18 q 87 126 130 58 q 45 277 45 194 m 186 441 q 150 408 186 441 q 114 277 114 375 q 186 113 114 178 q 361 47 258 47 q 538 113 465 47 q 611 277 611 178 q 538 441 611 375 q 361 507 465 507 q 186 441 258 507 m 161 778 q 219 630 161 689 q 361 571 277 571 q 504 630 445 571 q 562 778 562 689 q 504 918 562 863 q 361 974 446 974 q 219 918 277 974 q 161 778 161 862 z "},"9":{"ha":737,"x_min":50,"x_max":686,"o":"m 50 711 q 94 881 50 805 q 210 998 137 956 q 370 1039 283 1039 q 594 946 503 1039 q 686 711 686 853 q 624 511 686 599 l 275 0 l 193 0 l 463 397 q 370 383 419 383 q 143 477 237 383 q 50 711 50 570 m 121 711 q 193 523 121 598 q 370 447 265 447 q 545 523 473 447 q 616 711 616 598 q 545 900 616 825 q 370 974 473 974 q 193 900 265 974 q 121 711 121 825 z "}," ":{"ha":341,"x_min":0,"x_max":0,"o":""},"!":{"ha":319,"x_min":104,"x_max":218,"o":"m 104 39 q 120 79 104 62 q 160 96 136 96 q 202 79 185 96 q 218 39 218 62 q 202 -2 218 14 q 160 -18 185 -18 q 120 -2 136 -18 q 104 39 104 14 m 126 256 l 126 1021 l 193 1021 l 193 256 l 126 256 z "},"\"":{"ha":358,"x_min":69,"x_max":317,"o":"m 69 1035 l 139 1019 l 106 675 l 74 675 l 69 1035 m 248 1035 l 317 1019 l 283 675 l 252 675 l 248 1035 z "},"#":{"ha":981,"x_min":1,"x_max":957,"o":"m 1 294 l 1 354 l 235 354 l 289 654 l 66 654 l 66 714 l 298 714 l 353 1021 l 419 1021 l 364 714 l 668 714 l 722 1021 l 789 1021 l 733 714 l 957 714 l 957 654 l 724 654 l 671 354 l 892 354 l 892 294 l 661 294 l 611 0 l 542 0 l 595 294 l 292 294 l 241 0 l 172 0 l 225 294 l 1 294 m 301 354 l 604 354 l 659 654 l 354 654 l 301 354 z "},"$":{"ha":785,"x_min":54,"x_max":746,"o":"m 54 107 l 97 165 q 237 80 155 111 q 407 49 320 49 q 600 107 524 49 q 676 271 676 165 q 610 406 676 357 q 395 488 543 454 q 144 588 217 528 q 72 761 72 648 q 154 962 72 888 q 371 1039 236 1036 l 371 1207 l 432 1207 l 432 1036 q 689 930 575 1023 l 650 872 q 527 945 596 918 q 382 972 458 972 q 210 919 277 972 q 143 762 143 866 q 158 685 143 717 q 207 630 172 653 q 290 590 242 606 q 414 557 337 574 q 669 452 592 515 q 746 273 746 389 q 661 69 746 148 q 432 -17 576 -10 l 432 -179 l 371 -179 l 371 -17 q 54 107 187 -7 z "},"%":{"ha":1172,"x_min":46,"x_max":1126,"o":"m 46 785 q 114 967 46 895 q 285 1039 181 1039 q 455 966 387 1039 q 522 785 522 894 q 455 604 522 675 q 285 533 387 533 q 113 604 180 533 q 46 785 46 675 m 103 785 q 154 644 103 700 q 285 589 205 589 q 413 644 363 589 q 464 785 464 700 q 413 927 464 871 q 285 983 363 983 q 154 927 205 983 q 103 785 103 871 m 211 0 l 885 1021 l 960 1021 l 286 0 l 211 0 m 717 54 q 683 89 717 54 q 650 235 650 125 q 718 416 650 345 q 889 488 785 488 q 1059 416 992 488 q 1126 235 1126 344 q 1060 54 1126 125 q 889 -17 993 -17 q 717 54 785 -17 m 759 376 q 733 348 759 376 q 708 235 708 320 q 759 94 708 149 q 889 39 810 39 q 1019 94 968 39 q 1069 235 1069 149 q 1018 376 1069 320 q 889 432 967 432 q 759 376 810 432 z "},"&":{"ha":919,"x_min":46,"x_max":921,"o":"m 46 262 q 75 393 46 336 q 154 494 103 450 q 297 595 205 539 q 191 835 191 723 q 245 984 191 928 q 393 1039 300 1039 q 541 984 485 1039 q 597 840 597 930 q 587 776 597 806 q 561 722 577 745 q 516 673 545 698 q 459 628 487 648 q 390 583 432 609 q 425 547 393 581 q 473 496 457 514 l 673 273 l 831 452 l 918 452 l 718 224 l 921 0 l 828 0 l 672 172 q 603 102 634 131 q 530 45 572 74 q 441 1 488 16 q 340 -14 393 -14 q 131 61 215 -14 q 46 262 46 136 m 115 265 q 181 109 115 167 q 343 50 246 50 q 427 64 387 50 q 505 106 467 77 q 567 159 542 134 q 628 222 592 183 l 425 452 q 336 549 340 544 q 258 497 290 519 q 197 448 227 475 q 152 395 168 421 q 125 336 135 368 q 115 265 115 303 m 257 833 q 353 628 257 740 q 491 733 452 688 q 530 838 530 778 q 493 940 530 903 q 393 977 456 977 q 293 940 329 977 q 257 833 257 903 z "},"'":{"ha":179,"x_min":69,"x_max":139,"o":"m 69 1035 l 139 1019 l 106 675 l 74 675 l 69 1035 z "},"(":{"ha":361,"x_min":72,"x_max":328,"o":"m 279 -147 q 72 401 72 92 q 279 950 72 711 l 328 909 q 260 819 290 865 q 200 711 230 774 q 154 569 170 648 q 138 401 138 490 q 154 234 138 313 q 200 92 170 155 q 260 -17 230 28 q 328 -107 290 -62 l 279 -147 z "},")":{"ha":361,"x_min":32,"x_max":288,"o":"m 32 -107 q 101 -17 71 -62 q 161 92 131 29 q 207 234 191 155 q 224 401 224 313 q 207 569 224 490 q 161 711 191 648 q 101 819 131 774 q 32 909 71 865 l 82 950 q 288 401 288 714 q 82 -147 288 89 l 32 -107 z "},"*":{"ha":544,"x_min":40,"x_max":505,"o":"m 40 832 l 58 884 l 248 819 l 244 1019 l 300 1019 l 298 819 l 488 884 l 505 832 l 315 771 l 433 611 l 389 579 l 273 739 l 158 579 l 114 611 l 232 771 l 40 832 z "},"+":{"ha":637,"x_min":60,"x_max":576,"o":"m 60 454 l 60 518 l 286 518 l 286 745 l 350 745 l 350 518 l 576 518 l 576 454 l 350 454 l 350 228 l 286 228 l 286 454 l 60 454 z "},",":{"ha":219,"x_min":74,"x_max":160,"o":"m 74 114 q 94 117 81 117 q 141 98 122 117 q 160 52 160 79 q 151 17 160 41 l 79 -180 l 74 -180 l 74 114 z "},"-":{"ha":615,"x_min":60,"x_max":554,"o":"m 60 326 l 60 392 l 554 392 l 554 326 l 60 326 z "},".":{"ha":240,"x_min":54,"x_max":186,"o":"m 74 5 q 64 14 74 5 q 54 52 54 24 q 74 98 54 79 q 121 117 93 117 q 168 98 149 117 q 186 52 186 80 q 167 5 186 24 q 121 -14 149 -14 q 74 5 93 -14 z "},"/":{"ha":590,"x_min":7,"x_max":583,"o":"m 7 0 l 514 1019 l 583 1019 l 78 0 l 7 0 z "},":":{"ha":237,"x_min":54,"x_max":183,"o":"m 54 50 q 73 97 54 78 q 119 115 92 115 q 165 97 146 115 q 183 50 183 79 q 165 5 183 23 q 119 -14 146 -14 q 73 5 92 -14 q 54 50 54 23 m 73 595 q 64 604 73 595 q 54 640 54 613 q 73 686 54 667 q 119 704 92 704 q 165 686 146 704 q 183 640 183 668 q 165 595 183 613 q 119 576 146 576 q 73 595 92 576 z "},";":{"ha":237,"x_min":54,"x_max":183,"o":"m 73 595 q 64 604 73 595 q 54 640 54 613 q 73 686 54 667 q 119 704 92 704 q 165 686 146 704 q 183 640 183 668 q 165 595 183 613 q 119 576 146 576 q 73 595 92 576 m 78 113 q 97 115 89 115 q 144 96 125 115 q 163 49 163 77 q 154 16 163 33 l 83 -182 l 78 -182 l 78 113 z "},"<":{"ha":447,"x_min":32,"x_max":415,"o":"m 32 478 l 32 484 l 325 747 l 415 747 l 121 481 l 415 214 l 325 214 l 32 478 z "},"=":{"ha":637,"x_min":60,"x_max":576,"o":"m 60 307 l 60 371 l 576 371 l 576 307 l 60 307 m 60 602 l 60 665 l 576 665 l 576 602 l 60 602 z "},">":{"ha":447,"x_min":32,"x_max":415,"o":"m 32 214 l 326 481 l 32 747 l 122 747 l 415 484 l 415 478 l 122 214 l 32 214 z "},"?":{"ha":633,"x_min":31,"x_max":575,"o":"m 31 814 q 306 1039 79 1039 q 500 965 426 1039 q 575 772 575 890 q 562 685 575 726 q 529 615 549 644 q 485 561 509 587 q 435 512 460 535 q 390 467 410 490 q 357 416 370 444 q 345 355 345 387 l 345 256 l 275 256 l 275 361 q 288 432 275 399 q 321 490 300 465 q 365 538 341 515 q 414 586 389 562 q 458 636 438 610 q 491 697 479 662 q 504 772 504 732 q 448 920 504 867 q 304 974 392 974 q 168 931 218 974 q 97 800 117 888 l 31 814 m 253 39 q 270 79 253 62 q 310 96 286 96 q 352 79 335 96 q 368 39 368 62 q 352 -2 368 14 q 310 -18 335 -18 q 269 -2 286 -18 q 253 39 253 14 z "},"@":{"ha":1144,"x_min":49,"x_max":1096,"o":"m 49 338 q 88 546 49 449 q 196 711 127 642 q 362 820 264 781 q 572 860 460 860 q 783 821 686 860 q 949 713 880 781 q 1057 547 1018 644 q 1096 339 1096 450 q 1041 116 1096 199 q 886 33 985 33 q 808 57 838 33 q 775 123 779 81 l 774 131 q 561 33 697 33 q 368 118 444 33 q 293 334 293 203 q 368 550 293 465 q 561 635 444 635 q 771 542 696 635 l 772 624 l 828 624 l 828 149 q 890 87 828 87 q 1000 157 962 87 q 1039 339 1039 227 q 1004 524 1039 437 q 908 671 969 610 q 760 768 847 732 q 572 803 673 803 q 385 768 472 803 q 237 671 298 732 q 142 523 176 609 q 107 338 107 437 q 142 152 107 238 q 237 4 176 65 q 384 -93 297 -58 q 570 -127 470 -127 q 754 -94 669 -127 l 775 -146 q 570 -183 677 -183 q 360 -144 457 -183 q 195 -37 263 -105 q 88 129 127 32 q 49 338 49 226 m 353 334 q 414 156 353 225 q 571 87 476 87 q 685 116 638 87 q 770 196 732 144 l 770 472 q 685 552 732 523 q 571 581 637 581 q 414 511 476 581 q 353 334 353 441 z "},"A":{"ha":932,"x_min":18,"x_max":914,"o":"m 18 0 l 463 1039 l 468 1039 l 914 0 l 838 0 l 724 269 l 207 269 l 94 0 l 18 0 m 236 334 l 696 334 l 465 878 l 236 334 z "},"B":{"ha":903,"x_min":126,"x_max":852,"o":"m 126 0 l 126 1021 l 453 1021 q 687 951 608 1021 q 765 758 765 881 q 723 614 765 672 q 624 533 682 556 q 790 450 728 513 q 852 275 852 388 q 764 73 852 146 q 522 0 675 0 l 126 0 m 195 65 l 518 65 q 713 119 644 65 q 783 277 783 174 q 493 489 783 489 l 195 489 l 195 65 m 195 554 l 468 554 q 636 610 576 554 q 697 754 697 665 q 635 903 697 851 q 449 956 574 956 l 195 956 l 195 554 z "},"C":{"ha":943,"x_min":50,"x_max":917,"o":"m 50 510 q 114 781 50 661 q 294 970 178 902 q 554 1039 409 1039 q 907 896 764 1039 l 861 843 q 723 938 802 904 q 554 972 644 972 q 330 912 429 972 q 177 747 231 852 q 122 510 122 642 q 177 273 122 378 q 330 108 231 168 q 554 49 429 49 q 731 85 650 49 q 871 187 812 122 l 917 134 q 554 -18 775 -18 q 352 22 446 -18 q 192 132 258 62 q 88 299 125 201 q 50 510 50 397 z "},"D":{"ha":1008,"x_min":126,"x_max":957,"o":"m 126 0 l 126 1021 l 418 1021 q 815 887 673 1021 q 957 511 957 753 q 815 135 957 269 q 418 0 673 0 l 126 0 m 197 66 l 416 66 q 764 183 641 66 q 886 511 886 300 q 763 837 886 721 q 416 953 640 953 l 197 953 l 197 66 z "},"E":{"ha":779,"x_min":126,"x_max":742,"o":"m 126 0 l 126 1021 l 730 1021 l 730 954 l 197 954 l 197 550 l 669 550 l 669 485 l 197 485 l 197 66 l 742 66 l 742 0 l 126 0 z "},"F":{"ha":726,"x_min":126,"x_max":708,"o":"m 126 0 l 126 1021 l 708 1021 l 708 954 l 197 954 l 197 536 l 637 536 l 637 469 l 197 469 l 197 0 l 126 0 z "},"G":{"ha":1015,"x_min":50,"x_max":932,"o":"m 116 239 q 83 299 116 239 q 50 510 50 359 q 114 781 50 661 q 294 970 178 902 q 554 1039 409 1039 q 907 896 764 1039 l 861 843 q 723 938 802 904 q 554 972 644 972 q 330 912 429 972 q 177 747 231 852 q 122 510 122 642 q 155 326 122 411 q 247 179 189 240 q 388 84 304 119 q 568 49 471 49 q 861 143 743 49 l 861 436 l 561 436 l 561 500 l 932 500 l 932 109 q 568 -18 792 -18 q 301 50 419 -18 q 116 239 182 118 z "},"H":{"ha":994,"x_min":126,"x_max":868,"o":"m 126 0 l 126 1021 l 197 1021 l 197 555 l 798 555 l 798 1021 l 868 1021 l 868 0 l 798 0 l 798 488 l 197 488 l 197 0 l 126 0 z "},"I":{"ha":323,"x_min":126,"x_max":197,"o":"m 126 0 l 126 1021 l 197 1021 l 197 0 l 126 0 z "},"J":{"ha":711,"x_min":32,"x_max":600,"o":"m 32 285 l 103 285 q 162 112 103 176 q 315 49 220 49 q 472 110 414 49 q 529 281 529 172 l 529 1021 l 600 1021 l 600 278 q 523 61 600 141 q 317 -18 446 -18 q 206 2 258 -18 q 116 61 155 23 q 54 157 77 99 q 32 285 32 214 z "},"K":{"ha":871,"x_min":126,"x_max":856,"o":"m 126 0 l 126 1021 l 197 1021 l 197 144 l 694 1021 l 778 1021 l 493 528 l 856 0 l 771 0 l 453 463 l 184 0 l 126 0 z "},"L":{"ha":753,"x_min":126,"x_max":734,"o":"m 126 0 l 126 1021 l 197 1021 l 197 65 l 734 65 l 734 0 l 126 0 z "},"M":{"ha":1190,"x_min":126,"x_max":1064,"o":"m 126 0 l 126 1039 l 132 1039 l 596 132 l 1059 1039 l 1064 1039 l 1064 0 l 993 0 l 993 782 l 600 -3 l 591 -3 l 197 782 l 197 0 l 126 0 z "},"N":{"ha":1002,"x_min":126,"x_max":876,"o":"m 126 0 l 126 1039 l 132 1039 l 806 170 l 806 1021 l 876 1021 l 876 -18 l 871 -18 l 197 852 l 197 0 l 126 0 z "},"O":{"ha":1109,"x_min":50,"x_max":1059,"o":"m 50 510 q 115 781 50 661 q 294 970 179 902 q 554 1039 410 1039 q 756 999 662 1039 q 916 889 850 959 q 1021 721 983 819 q 1059 510 1059 623 q 1021 299 1059 397 q 916 131 983 201 q 756 21 850 61 q 554 -18 662 -18 q 352 21 446 -18 q 192 131 258 61 q 88 299 125 201 q 50 510 50 397 m 177 747 q 150 694 177 747 q 122 510 122 642 q 177 273 122 378 q 331 108 232 168 q 554 49 429 49 q 777 108 678 49 q 932 273 876 168 q 987 510 987 378 q 932 747 987 641 q 777 912 876 852 q 554 972 678 972 q 331 912 429 972 q 177 747 232 852 z "},"P":{"ha":812,"x_min":126,"x_max":778,"o":"m 126 0 l 126 1021 l 427 1021 q 682 941 587 1021 q 778 713 778 861 q 683 486 778 566 q 427 406 587 406 l 197 406 l 197 0 l 126 0 m 197 471 l 422 471 q 630 533 555 471 q 705 713 705 596 q 630 892 705 829 q 422 956 554 956 l 197 956 l 197 471 z "},"Q":{"ha":1109,"x_min":50,"x_max":1069,"o":"m 50 510 q 115 781 50 661 q 294 970 179 902 q 554 1039 410 1039 q 756 999 662 1039 q 916 889 850 959 q 1021 721 983 819 q 1059 510 1059 623 q 1007 268 1059 378 q 865 86 956 158 l 1069 -151 l 979 -151 l 808 47 q 554 -18 691 -18 q 352 21 446 -18 q 192 131 258 61 q 88 299 125 201 q 50 510 50 397 m 177 747 q 150 694 177 747 q 122 510 122 642 q 177 273 122 378 q 331 108 232 168 q 554 49 429 49 q 764 100 670 49 l 586 310 l 637 354 l 821 139 q 943 298 899 201 q 987 510 987 394 q 932 747 987 641 q 777 912 876 852 q 554 972 678 972 q 331 912 429 972 q 177 747 232 852 z "},"R":{"ha":831,"x_min":121,"x_max":802,"o":"m 121 0 l 121 1021 l 397 1021 q 657 942 559 1021 q 755 718 755 863 q 695 532 755 606 q 526 431 634 458 l 802 0 l 717 0 l 450 418 q 397 415 414 415 l 192 415 l 192 0 l 121 0 m 192 482 l 393 482 q 607 543 530 482 q 684 718 684 603 q 606 895 684 833 q 393 956 528 956 l 192 956 l 192 482 z "},"S":{"ha":789,"x_min":50,"x_max":742,"o":"m 50 107 l 93 165 q 233 80 151 111 q 403 49 316 49 q 596 107 520 49 q 672 271 672 165 q 605 406 672 357 q 390 488 538 454 q 241 531 300 508 q 142 586 182 554 q 85 661 102 618 q 68 761 68 703 q 154 965 68 891 q 379 1039 239 1039 q 685 930 551 1039 l 646 872 q 523 945 592 918 q 378 972 454 972 q 206 919 273 972 q 139 762 139 866 q 154 685 139 717 q 203 630 168 653 q 286 590 238 606 q 410 557 333 574 q 665 452 588 515 q 742 273 742 389 q 649 62 742 142 q 401 -18 556 -18 q 50 107 195 -18 z "},"T":{"ha":882,"x_min":21,"x_max":861,"o":"m 21 956 l 21 1021 l 861 1021 l 861 956 l 476 956 l 476 0 l 406 0 l 406 956 l 21 956 z "},"U":{"ha":949,"x_min":114,"x_max":836,"o":"m 114 353 l 114 1021 l 184 1021 l 184 354 q 259 130 184 212 q 475 49 333 49 q 690 130 616 49 q 765 354 765 212 l 765 1021 l 836 1021 l 836 353 q 743 81 836 180 q 475 -18 650 -18 q 207 80 299 -18 q 114 353 114 179 z "},"V":{"ha":986,"x_min":18,"x_max":968,"o":"m 18 1021 l 96 1021 l 493 138 l 892 1021 l 968 1021 l 496 -18 l 490 -18 l 18 1021 z "},"W":{"ha":1380,"x_min":18,"x_max":1362,"o":"m 18 1021 l 97 1021 l 404 176 l 688 1021 l 693 1021 l 977 176 l 1283 1021 l 1362 1021 l 978 -18 l 972 -18 l 690 819 l 408 -18 l 403 -18 l 18 1021 z "},"X":{"ha":892,"x_min":24,"x_max":869,"o":"m 24 0 l 399 521 l 37 1021 l 123 1021 l 446 576 l 770 1021 l 854 1021 l 494 521 l 869 0 l 785 0 l 446 465 l 109 0 l 24 0 z "},"Y":{"ha":865,"x_min":14,"x_max":851,"o":"m 14 1019 l 97 1019 l 432 518 l 766 1019 l 851 1019 l 468 446 l 468 0 l 397 0 l 397 446 l 14 1019 z "},"Z":{"ha":786,"x_min":45,"x_max":746,"o":"m 45 0 l 45 5 l 616 956 l 66 956 l 66 1021 l 729 1021 l 729 1015 l 158 65 l 746 65 l 746 0 l 45 0 z "},"[":{"ha":391,"x_min":77,"x_max":357,"o":"m 77 -168 l 77 971 l 357 971 l 357 909 l 143 909 l 143 -107 l 357 -107 l 357 -168 l 77 -168 z "},"\\":{"ha":590,"x_min":7,"x_max":583,"o":"m 7 1019 l 77 1019 l 583 0 l 513 0 l 7 1019 z "},"]":{"ha":406,"x_min":35,"x_max":329,"o":"m 35 -107 l 261 -107 l 261 909 l 35 909 l 35 971 l 329 971 l 329 -168 l 35 -168 l 35 -107 z "},"^":{"ha":748,"x_min":32,"x_max":717,"o":"m 32 642 l 374 1055 l 717 642 l 647 642 l 374 971 l 103 642 l 32 642 z "},"_":{"ha":1119,"x_min":60,"x_max":1060,"o":"m 60 0 l 1060 0 l 1060 -64 l 60 -64 l 60 0 z "},"`":{"ha":355,"x_min":45,"x_max":335,"o":"m 45 965 l 136 965 l 335 804 l 253 804 l 45 965 z "},"a":{"ha":802,"x_min":46,"x_max":682,"o":"m 46 345 q 136 603 46 502 q 368 704 227 704 q 616 593 529 704 l 618 690 l 682 690 l 682 0 l 618 0 l 616 100 q 368 -14 527 -14 q 137 87 227 -14 q 46 345 46 189 m 188 558 q 151 516 188 558 q 114 345 114 475 q 188 132 114 214 q 376 49 262 49 q 514 83 458 49 q 614 180 570 117 l 614 510 q 514 607 570 573 q 376 642 458 642 q 188 558 262 642 z "},"b":{"ha":802,"x_min":121,"x_max":757,"o":"m 121 0 l 121 1055 l 189 1055 l 189 596 q 435 704 276 704 q 667 603 576 704 q 757 345 757 502 q 666 87 757 189 q 435 -14 576 -14 q 186 100 275 -14 l 184 0 l 121 0 m 189 180 q 289 83 233 117 q 427 49 345 49 q 615 132 541 49 q 689 345 689 214 q 615 558 689 475 q 427 642 541 642 q 289 607 345 642 q 189 510 233 573 l 189 180 z "},"c":{"ha":686,"x_min":46,"x_max":657,"o":"m 137 86 q 92 136 137 86 q 46 346 46 186 q 136 605 46 506 q 385 704 226 704 q 650 561 553 704 l 600 521 q 385 643 522 643 q 184 561 255 643 q 114 346 114 479 q 186 131 114 213 q 389 49 258 49 q 517 83 462 49 q 607 170 573 117 l 657 129 q 543 24 612 61 q 389 -14 475 -14 q 137 86 229 -14 z "},"d":{"ha":802,"x_min":46,"x_max":682,"o":"m 46 345 q 136 603 46 502 q 368 704 227 704 q 614 596 527 704 l 614 1055 l 682 1055 l 682 0 l 618 0 l 616 100 q 368 -14 527 -14 q 137 87 227 -14 q 46 345 46 189 m 188 558 q 151 516 188 558 q 114 345 114 475 q 188 132 114 214 q 376 49 262 49 q 514 83 458 49 q 614 180 570 117 l 614 510 q 514 607 570 573 q 376 642 458 642 q 188 558 262 642 z "},"e":{"ha":726,"x_min":46,"x_max":679,"o":"m 46 345 q 136 603 46 502 q 368 704 225 704 q 536 657 465 704 q 643 532 608 610 q 679 353 679 453 l 679 321 l 114 321 q 188 121 117 195 q 386 47 259 47 q 524 77 465 47 q 618 153 582 106 l 667 113 q 386 -14 566 -14 q 137 85 227 -14 q 46 345 46 184 m 114 380 l 612 380 q 543 570 608 498 q 368 643 478 643 q 190 570 260 643 q 114 380 120 497 z "},"f":{"ha":455,"x_min":28,"x_max":497,"o":"m 28 629 l 28 690 l 155 690 l 155 832 q 210 992 155 930 q 355 1055 264 1055 q 497 1002 441 1055 l 464 950 q 357 993 423 993 q 259 948 295 993 q 222 835 222 904 l 222 690 l 429 690 l 429 629 l 222 629 l 222 0 l 155 0 l 155 629 l 28 629 z "},"g":{"ha":802,"x_min":46,"x_max":682,"o":"m 46 345 q 136 603 46 502 q 368 704 227 704 q 616 593 529 704 l 618 690 l 682 690 l 682 7 q 592 -242 682 -151 q 350 -334 501 -334 q 54 -193 165 -334 l 102 -150 q 349 -271 197 -271 q 542 -197 471 -271 q 614 5 614 -123 l 614 97 q 368 -14 527 -14 q 137 87 227 -14 q 46 345 46 189 m 188 558 q 151 516 188 558 q 114 345 114 475 q 188 132 114 214 q 376 49 262 49 q 514 83 458 49 q 614 180 570 117 l 614 510 q 514 607 570 573 q 376 642 458 642 q 188 558 262 642 z "},"h":{"ha":791,"x_min":121,"x_max":690,"o":"m 121 0 l 121 1055 l 189 1055 l 189 593 q 428 704 286 704 q 620 625 550 704 q 690 418 690 547 l 690 0 l 624 0 l 624 414 q 567 576 624 514 q 416 639 510 639 q 293 606 345 639 q 189 509 241 574 l 189 0 l 121 0 z "},"i":{"ha":309,"x_min":98,"x_max":214,"o":"m 98 918 q 115 959 98 942 q 155 975 132 975 q 196 959 179 975 q 214 918 214 942 q 197 878 214 894 q 155 861 180 861 q 115 878 131 861 q 98 918 98 894 m 121 0 l 121 690 l 189 690 l 189 0 l 121 0 z "},"j":{"ha":309,"x_min":-201,"x_max":214,"o":"m -201 -261 l -155 -215 q -26 -271 -102 -271 q 79 -229 38 -271 q 121 -123 121 -187 l 121 690 l 189 690 l 189 -121 q 128 -273 189 -212 q -25 -334 67 -334 q -201 -261 -132 -334 m 98 918 q 115 959 98 942 q 155 975 132 975 q 196 959 179 975 q 214 918 214 942 q 197 878 214 894 q 155 861 180 861 q 115 878 131 861 q 98 918 98 894 z "},"k":{"ha":700,"x_min":121,"x_max":685,"o":"m 121 0 l 121 1055 l 189 1055 l 189 125 l 555 690 l 635 690 l 424 372 l 685 0 l 604 0 l 383 314 l 178 0 l 121 0 z "},"l":{"ha":309,"x_min":121,"x_max":189,"o":"m 121 0 l 121 1055 l 189 1055 l 189 0 l 121 0 z "},"m":{"ha":1262,"x_min":121,"x_max":1162,"o":"m 121 0 l 121 690 l 184 690 l 186 593 q 422 704 280 704 q 558 667 501 704 q 646 562 616 629 q 757 665 690 625 q 909 704 824 704 q 1094 625 1025 704 q 1162 418 1162 546 l 1162 0 l 1095 0 l 1095 414 q 1040 576 1095 514 q 897 639 985 639 q 772 604 827 639 q 667 500 718 569 q 675 422 675 463 l 675 0 l 608 0 l 608 414 q 554 576 608 514 q 411 639 499 639 q 290 607 342 639 q 189 511 237 574 l 189 0 l 121 0 z "},"n":{"ha":791,"x_min":121,"x_max":690,"o":"m 121 0 l 121 690 l 184 690 l 186 590 q 428 704 285 704 q 620 625 550 704 q 690 418 690 547 l 690 0 l 624 0 l 624 414 q 567 576 624 514 q 416 639 510 639 q 293 606 345 639 q 189 509 241 574 l 189 0 l 121 0 z "},"o":{"ha":780,"x_min":46,"x_max":734,"o":"m 46 345 q 143 602 46 500 q 390 704 240 704 q 637 602 539 704 q 734 345 734 500 q 637 87 734 189 q 390 -14 539 -14 q 143 87 240 -14 q 46 345 46 189 m 114 345 q 192 132 114 215 q 390 49 269 49 q 588 132 510 49 q 667 345 667 216 q 588 557 667 473 q 390 642 510 642 q 192 557 269 642 q 114 345 114 473 z "},"p":{"ha":802,"x_min":121,"x_max":757,"o":"m 121 -319 l 121 690 l 184 690 l 186 590 q 435 704 273 704 q 667 603 576 704 q 757 346 757 503 q 667 88 757 189 q 435 -14 576 -14 q 189 94 276 -14 l 189 -319 l 121 -319 m 189 180 q 289 83 233 117 q 427 49 345 49 q 615 132 541 49 q 689 346 689 216 q 615 559 689 476 q 427 642 541 642 q 289 607 345 642 q 189 510 233 573 l 189 180 z "},"q":{"ha":802,"x_min":46,"x_max":682,"o":"m 136 88 q 91 139 136 88 q 46 346 46 189 q 136 603 46 503 q 368 704 227 704 q 616 590 529 704 l 618 690 l 682 690 l 682 -319 l 614 -319 l 614 94 q 368 -14 527 -14 q 136 88 227 -14 m 188 559 q 151 517 188 559 q 114 346 114 476 q 188 132 114 216 q 376 49 262 49 q 514 83 458 49 q 614 180 570 117 l 614 510 q 514 607 570 573 q 376 642 458 642 q 188 559 262 642 z "},"r":{"ha":416,"x_min":121,"x_max":399,"o":"m 121 0 l 121 690 l 184 690 l 186 589 q 270 670 216 637 q 399 704 324 704 l 399 636 l 390 636 q 278 604 325 636 q 189 507 231 572 l 189 0 l 121 0 z "},"s":{"ha":614,"x_min":57,"x_max":558,"o":"m 57 69 l 92 123 q 310 49 181 49 q 441 84 391 49 q 492 186 492 119 q 448 271 492 241 q 302 323 404 300 q 127 393 180 351 q 75 513 75 435 q 138 654 75 604 q 306 704 201 704 q 521 631 425 704 l 489 578 q 307 642 405 642 q 188 610 232 642 q 143 515 143 579 q 183 434 143 460 q 325 383 222 408 q 503 311 448 355 q 558 189 558 266 q 490 42 558 98 q 309 -14 421 -14 q 57 69 159 -14 z "},"t":{"ha":516,"x_min":20,"x_max":510,"o":"m 20 629 l 20 690 l 165 690 l 165 929 l 232 929 l 232 690 l 469 690 l 469 629 l 232 629 l 232 204 q 271 89 232 130 q 375 49 311 49 q 484 74 445 49 l 510 20 q 372 -14 460 -14 q 221 42 277 -14 q 165 204 165 98 l 165 629 l 20 629 z "},"u":{"ha":774,"x_min":102,"x_max":654,"o":"m 102 268 l 102 690 l 170 690 l 170 271 q 221 112 170 172 q 357 52 272 52 q 485 84 433 52 q 586 180 536 116 l 586 690 l 654 690 l 654 0 l 590 0 l 589 98 q 346 -14 494 -14 q 167 63 233 -14 q 102 268 102 140 z "},"v":{"ha":705,"x_min":18,"x_max":686,"o":"m 18 690 l 93 690 l 353 129 l 612 690 l 686 690 l 355 -14 l 350 -14 l 18 690 z "},"w":{"ha":1046,"x_min":18,"x_max":1026,"o":"m 18 690 l 93 690 l 307 144 l 521 690 l 526 690 l 739 144 l 953 690 l 1026 690 l 745 -14 l 739 -14 l 524 538 l 307 -14 l 301 -14 l 18 690 z "},"x":{"ha":648,"x_min":29,"x_max":618,"o":"m 29 0 l 279 353 l 39 690 l 119 690 l 322 403 l 528 690 l 608 690 l 368 353 l 618 0 l 538 0 l 322 300 l 110 0 l 29 0 z "},"y":{"ha":729,"x_min":31,"x_max":699,"o":"m 31 690 l 104 690 l 364 126 l 624 690 l 699 690 l 227 -319 l 150 -319 l 328 50 l 31 690 z "},"z":{"ha":593,"x_min":33,"x_max":558,"o":"m 33 0 l 33 5 l 446 629 l 57 629 l 57 690 l 558 690 l 558 685 l 144 61 l 558 61 l 558 0 l 33 0 z "},"{":{"ha":456,"x_min":45,"x_max":422,"o":"m 45 399 l 45 404 q 163 459 125 423 q 189 558 200 494 l 175 684 q 174 794 164 747 q 204 876 183 842 q 261 931 226 909 q 336 962 296 952 q 422 971 376 971 l 422 909 q 348 899 382 909 q 286 865 314 888 q 246 799 258 842 q 240 694 233 755 l 254 568 q 243 463 265 501 q 171 401 222 424 q 243 340 222 379 q 254 235 265 302 l 240 109 q 246 4 233 48 q 286 -63 258 -39 q 348 -97 314 -86 q 422 -107 382 -107 l 422 -168 q 336 -159 376 -168 q 261 -128 296 -149 q 204 -73 226 -106 q 174 8 183 -39 q 175 119 164 56 l 189 244 q 163 344 200 308 q 45 399 125 380 z "},"|":{"ha":305,"x_min":119,"x_max":186,"o":"m 119 -168 l 119 971 l 186 971 l 186 -168 l 119 -168 z "},"}":{"ha":456,"x_min":35,"x_max":412,"o":"m 35 -107 q 109 -97 75 -107 q 170 -63 142 -86 q 210 4 198 -39 q 215 109 222 48 l 203 235 q 213 341 192 302 q 286 401 235 379 q 213 462 235 424 q 203 568 192 500 l 215 694 q 214 781 221 743 q 190 843 207 819 q 148 882 174 867 q 95 903 122 897 q 35 909 67 909 l 35 971 q 142 956 94 971 q 227 907 190 940 q 279 817 264 874 q 283 684 295 760 l 268 558 q 294 459 257 494 q 412 404 332 423 l 412 399 q 294 344 332 380 q 268 244 257 308 l 283 119 q 279 -14 295 43 q 227 -104 264 -71 q 142 -153 190 -137 q 35 -168 94 -168 l 35 -107 z "},"~":{"ha":794,"x_min":45,"x_max":750,"o":"m 45 432 q 124 545 72 503 q 249 587 176 587 q 324 574 290 587 q 382 542 358 561 q 430 504 406 523 q 483 472 453 485 q 546 458 512 458 q 703 579 659 458 l 750 549 q 671 436 722 478 q 546 395 620 395 q 471 408 505 395 q 413 440 437 421 q 366 478 389 459 q 313 510 343 497 q 249 524 283 524 q 92 403 136 524 l 45 432 z "}," ":{"ha":341,"x_min":0,"x_max":0,"o":""},"¡":{"ha":319,"x_min":103,"x_max":216,"o":"m 103 646 q 120 687 103 671 q 161 703 136 703 q 201 687 185 703 q 216 646 216 671 q 201 605 216 621 q 161 589 185 589 q 120 605 136 589 q 103 646 103 622 m 127 -336 l 127 429 l 195 429 l 195 -336 l 127 -336 z "},"¢":{"ha":697,"x_min":46,"x_max":657,"o":"m 46 346 q 127 595 46 498 q 355 703 209 692 l 355 884 l 415 884 l 415 703 q 650 561 564 689 l 600 521 q 385 643 522 643 q 184 561 255 643 q 114 346 114 479 q 186 131 114 213 q 389 49 258 49 q 517 83 462 49 q 607 170 573 117 l 657 129 q 415 -12 568 -2 l 415 -199 l 355 -199 l 355 -12 q 128 96 210 -2 q 46 346 46 195 z "},"£":{"ha":774,"x_min":24,"x_max":704,"o":"m 24 0 l 24 5 q 66 79 52 54 q 100 146 80 104 q 128 218 120 187 q 144 289 136 248 q 149 371 151 329 q 138 461 146 414 l 134 481 l 32 481 l 32 541 l 121 541 q 98 715 98 644 q 172 955 99 870 q 372 1039 245 1039 q 538 986 469 1039 q 636 856 608 933 l 571 833 q 495 936 547 897 q 371 974 444 974 q 218 906 270 974 q 167 722 167 838 q 191 541 167 650 l 471 541 l 471 481 l 203 481 q 218 354 218 410 q 129 65 218 210 l 458 65 q 593 109 550 65 q 636 250 636 153 l 704 250 q 467 0 704 0 l 24 0 z "},"¤":{"ha":886,"x_min":68,"x_max":818,"o":"m 68 26 l 241 197 q 186 367 186 269 q 241 534 186 463 l 68 705 l 114 751 l 285 579 q 443 635 353 635 q 602 579 533 635 l 774 751 l 818 705 l 646 534 q 700 367 700 464 q 646 197 700 268 l 818 26 l 774 -18 l 602 153 q 443 98 534 98 q 285 153 352 98 l 114 -18 l 68 26 m 301 518 q 273 488 301 518 q 245 367 245 458 q 301 216 245 276 q 443 155 357 155 q 584 216 528 155 q 640 367 640 276 q 584 518 640 458 q 443 579 528 579 q 301 518 357 579 z "},"¥":{"ha":863,"x_min":12,"x_max":851,"o":"m 12 1019 l 97 1019 l 432 518 l 766 1019 l 851 1019 l 494 490 l 694 490 l 694 435 l 467 435 l 467 302 l 694 302 l 694 248 l 467 248 l 467 0 l 396 0 l 396 248 l 170 248 l 170 302 l 396 302 l 396 435 l 170 435 l 170 490 l 368 490 l 12 1019 z "},"¦":{"ha":305,"x_min":119,"x_max":186,"o":"m 119 -168 l 119 260 l 186 260 l 186 -168 l 119 -168 m 119 543 l 119 971 l 186 971 l 186 543 l 119 543 z "},"§":{"ha":555,"x_min":45,"x_max":513,"o":"m 45 -43 l 86 1 q 249 -65 151 -65 q 376 -22 326 -65 q 427 89 427 21 q 399 168 427 137 q 314 218 372 199 q 263 229 296 224 q 221 236 231 234 q 97 315 143 255 q 50 457 50 374 q 88 586 50 530 q 191 663 125 641 q 68 838 68 715 q 130 982 68 924 q 293 1039 193 1039 q 475 972 403 1039 l 436 928 q 293 979 378 979 q 178 940 223 979 q 134 838 134 900 q 163 750 134 785 q 253 697 193 716 q 309 685 269 692 q 372 668 349 677 q 475 588 437 644 q 513 457 513 531 q 475 330 513 385 q 375 252 437 275 q 492 89 492 202 q 423 -64 492 -3 q 248 -125 354 -125 q 45 -43 123 -125 m 160 579 q 136 555 160 579 q 113 457 113 531 q 160 336 113 383 q 281 289 207 289 q 403 336 355 289 q 452 457 452 384 q 403 579 452 531 q 281 627 355 627 q 160 579 207 627 z "},"¨":{"ha":379,"x_min":32,"x_max":347,"o":"m 32 879 q 47 916 32 901 q 85 932 63 932 q 123 916 108 932 q 139 879 139 901 q 123 842 139 857 q 85 827 108 827 q 47 842 62 827 q 32 879 32 857 m 240 879 q 256 916 240 901 q 293 932 271 932 q 331 916 315 932 q 347 879 347 901 q 331 842 347 857 q 293 827 315 827 q 255 842 271 827 q 240 879 240 857 z "},"©":{"ha":879,"x_min":47,"x_max":833,"o":"m 47 652 q 158 947 47 829 q 440 1064 269 1064 q 642 1010 552 1064 q 783 863 732 957 q 833 652 833 768 q 783 439 833 534 q 642 292 732 345 q 440 239 552 239 q 237 292 327 239 q 97 439 147 345 q 47 652 47 534 m 98 652 q 195 392 98 495 q 440 289 291 289 q 684 392 587 289 q 781 652 781 496 q 684 910 781 807 q 440 1014 587 1014 q 195 911 291 1014 q 98 652 98 808 m 218 652 q 283 824 218 755 q 447 892 347 892 q 610 827 545 892 l 575 789 q 447 842 524 842 q 319 788 369 842 q 269 652 269 734 q 319 514 269 568 q 447 461 368 461 q 578 517 529 461 l 612 481 q 447 411 550 411 q 282 479 347 411 q 218 652 218 547 z "},"ª":{"ha":583,"x_min":40,"x_max":493,"o":"m 103 600 q 72 635 103 600 q 40 781 40 671 q 103 962 40 890 q 264 1034 166 1034 q 436 957 374 1034 l 437 1023 l 493 1023 l 493 539 l 437 539 l 436 607 q 264 529 375 529 q 103 600 166 529 m 100 781 q 149 638 100 694 q 275 583 199 583 q 368 606 330 583 q 433 669 405 628 l 433 893 q 275 981 372 981 q 149 924 199 981 q 100 781 100 868 z "},"«":{"ha":608,"x_min":21,"x_max":587,"o":"m 21 353 l 21 358 l 232 636 l 301 636 l 92 355 l 301 75 l 232 75 l 21 353 m 307 353 l 307 358 l 517 636 l 587 636 l 376 355 l 587 75 l 517 75 l 307 353 z "},"¬":{"ha":761,"x_min":53,"x_max":708,"o":"m 53 525 l 53 575 l 708 575 l 708 231 l 656 231 l 656 525 l 53 525 z "},"­":{"ha":615,"x_min":60,"x_max":554,"o":"m 60 326 l 60 392 l 554 392 l 554 326 l 60 326 z "},"®":{"ha":879,"x_min":47,"x_max":833,"o":"m 47 652 q 158 947 47 829 q 440 1064 269 1064 q 642 1010 552 1064 q 783 863 732 957 q 833 652 833 768 q 783 439 833 534 q 642 292 732 345 q 440 239 552 239 q 237 292 327 239 q 97 439 147 345 q 47 652 47 534 m 98 652 q 195 392 98 495 q 440 289 291 289 q 684 392 587 289 q 781 652 781 496 q 684 910 781 807 q 440 1014 587 1014 q 195 911 291 1014 q 98 652 98 808 m 294 415 l 294 886 l 433 886 q 557 849 509 886 q 604 742 604 811 q 577 655 604 690 q 503 607 550 621 l 627 415 l 566 415 l 449 597 l 347 597 l 347 415 l 294 415 m 347 646 l 431 646 q 521 670 489 646 q 553 742 553 694 q 521 812 553 789 q 431 836 489 836 l 347 836 l 347 646 z "},"¯":{"ha":406,"x_min":32,"x_max":372,"o":"m 32 835 l 32 889 l 372 889 l 372 835 l 32 835 z "},"°":{"ha":447,"x_min":46,"x_max":401,"o":"m 46 863 q 97 988 46 938 q 225 1038 147 1038 q 351 988 301 1038 q 401 863 401 938 q 352 737 401 787 q 225 688 302 688 q 97 737 147 688 q 46 863 46 786 m 100 863 q 135 775 100 809 q 225 741 171 741 q 313 775 278 741 q 347 863 347 809 q 313 951 347 916 q 225 986 278 986 q 136 951 172 986 q 100 863 100 916 z "},"±":{"ha":637,"x_min":60,"x_max":576,"o":"m 60 164 l 60 228 l 576 228 l 576 164 l 60 164 m 60 576 l 60 642 l 286 642 l 286 867 l 350 867 l 350 642 l 576 642 l 576 576 l 350 576 l 350 350 l 286 350 l 286 576 l 60 576 z "},"²":{"ha":480,"x_min":69,"x_max":432,"o":"m 69 996 q 245 1140 100 1140 q 373 1094 324 1140 q 422 971 422 1047 q 403 875 422 917 q 340 783 384 833 l 182 602 l 432 602 l 432 547 l 78 547 l 78 553 l 294 815 q 349 894 333 859 q 366 971 366 928 q 332 1056 366 1024 q 245 1088 298 1088 q 122 985 146 1088 l 69 996 z "},"³":{"ha":476,"x_min":58,"x_max":439,"o":"m 58 669 l 110 685 q 163 614 131 639 q 253 590 195 590 q 345 624 310 590 q 380 713 380 658 q 341 796 380 762 q 240 829 302 829 l 172 829 l 172 876 l 243 876 q 323 903 290 876 q 357 981 357 930 q 325 1058 357 1028 q 243 1088 293 1088 q 118 999 153 1088 l 66 1021 q 244 1140 113 1140 q 366 1095 319 1140 q 414 981 414 1050 q 325 852 414 886 q 408 798 377 835 q 439 710 439 762 q 388 585 439 633 q 253 536 336 536 q 129 570 175 536 q 58 669 83 604 z "},"´":{"ha":355,"x_min":21,"x_max":310,"o":"m 21 804 l 218 965 l 310 965 l 102 804 l 21 804 z "},"µ":{"ha":794,"x_min":121,"x_max":673,"o":"m 121 -319 l 121 690 l 189 690 l 189 271 q 240 112 189 172 q 376 52 292 52 q 504 84 452 52 q 606 180 556 116 l 606 690 l 673 690 l 673 0 l 610 0 l 608 98 q 371 -14 513 -14 q 189 79 245 -14 l 189 -319 l 121 -319 z "},"¶":{"ha":895,"x_min":36,"x_max":836,"o":"m 36 718 q 139 943 36 865 q 414 1021 243 1021 l 836 1021 l 836 961 l 704 961 l 704 -153 l 643 -153 l 643 961 l 481 961 l 481 -153 l 418 -153 l 418 428 l 414 428 q 267 445 334 428 q 147 497 199 463 q 65 588 95 532 q 36 718 36 645 z "},"·":{"ha":210,"x_min":46,"x_max":163,"o":"m 46 355 q 63 397 46 380 q 104 414 79 414 q 146 397 130 414 q 163 355 163 380 q 146 315 163 332 q 104 298 130 298 q 63 315 79 298 q 46 355 46 332 z "},"¸":{"ha":334,"x_min":33,"x_max":304,"o":"m 33 -293 l 65 -254 q 157 -296 98 -296 q 225 -276 199 -296 q 252 -215 252 -256 q 183 -140 252 -158 q 119 -139 153 -135 l 115 -134 l 139 8 l 187 5 l 172 -90 q 268 -126 231 -94 q 304 -214 304 -159 q 263 -311 304 -277 q 158 -345 222 -345 q 33 -293 75 -345 z "},"¹":{"ha":340,"x_min":43,"x_max":252,"o":"m 43 1002 l 249 1140 l 252 1140 l 252 547 l 193 547 l 193 1038 l 74 953 l 43 1002 z "},"º":{"ha":568,"x_min":40,"x_max":526,"o":"m 40 781 q 109 962 40 890 q 285 1034 178 1034 q 458 961 390 1034 q 526 781 526 889 q 458 600 526 671 q 285 529 390 529 q 109 600 178 529 q 40 781 40 671 m 152 924 q 126 896 152 924 q 100 781 100 867 q 152 638 100 694 q 285 583 203 583 q 416 639 364 583 q 468 781 468 694 q 416 924 468 867 q 285 981 364 981 q 152 924 203 981 z "},"»":{"ha":608,"x_min":21,"x_max":587,"o":"m 21 75 l 232 355 l 21 636 l 92 636 l 301 358 l 301 353 l 92 75 l 21 75 m 307 75 l 517 355 l 307 636 l 376 636 l 587 358 l 587 353 l 376 75 l 307 75 z "},"¼":{"ha":958,"x_min":43,"x_max":926,"o":"m 43 863 l 249 1002 l 252 1002 l 252 408 l 193 408 l 193 899 l 74 814 l 43 863 m 174 0 l 681 1019 l 746 1019 l 240 0 l 174 0 m 497 121 l 497 123 l 831 595 l 835 595 l 835 168 l 926 168 l 926 119 l 835 119 l 835 0 l 778 0 l 778 121 l 497 121 m 591 168 l 779 168 l 779 439 l 591 168 z "},"½":{"ha":1043,"x_min":43,"x_max":994,"o":"m 43 863 l 249 1002 l 252 1002 l 252 408 l 193 408 l 193 899 l 74 814 l 43 863 m 174 0 l 681 1019 l 746 1019 l 240 0 l 174 0 m 632 449 q 808 593 663 593 q 936 546 887 593 q 985 424 985 500 q 965 328 985 370 q 903 236 946 286 l 745 54 l 994 54 l 994 0 l 640 0 l 640 5 l 857 268 q 912 346 896 311 q 928 424 928 381 q 894 509 928 477 q 808 541 861 541 q 685 437 709 541 l 632 449 z "},"¾":{"ha":1094,"x_min":58,"x_max":1063,"o":"m 58 530 l 110 546 q 163 476 131 500 q 253 452 195 452 q 345 485 310 452 q 380 574 380 519 q 341 657 380 623 q 240 690 302 690 l 172 690 l 172 737 l 243 737 q 323 764 290 737 q 357 842 357 791 q 325 919 357 889 q 243 949 293 949 q 118 860 153 949 l 66 882 q 244 1002 114 1002 q 366 957 319 1002 q 414 842 414 911 q 325 714 414 748 q 408 660 377 696 q 439 571 439 623 q 388 446 439 494 q 253 397 336 397 q 129 431 175 397 q 58 530 83 465 m 310 0 l 817 1019 l 882 1019 l 376 0 l 310 0 m 633 121 l 633 123 l 966 595 l 971 595 l 971 168 l 1063 168 l 1063 119 l 971 119 l 971 0 l 914 0 l 914 121 l 633 121 m 728 168 l 916 168 l 916 439 l 728 168 z "},"¿":{"ha":633,"x_min":58,"x_max":603,"o":"m 58 -87 q 71 0 58 -41 q 104 70 84 41 q 149 124 124 98 q 198 172 174 149 q 243 217 223 195 q 276 269 263 240 q 289 329 289 297 l 289 429 l 358 429 l 358 323 q 346 253 358 286 q 313 195 333 220 q 268 146 292 170 q 219 99 243 123 q 174 49 195 75 q 141 -12 154 23 q 129 -87 129 -47 q 185 -235 129 -182 q 329 -289 241 -289 q 466 -246 415 -289 q 536 -115 517 -203 l 603 -129 q 328 -354 554 -354 q 133 -280 208 -354 q 58 -87 58 -205 m 265 646 q 282 687 265 671 q 323 703 298 703 q 364 686 348 703 q 380 646 380 670 q 364 605 380 622 q 323 589 347 589 q 282 605 298 589 q 265 646 265 622 z "},"À":{"ha":932,"x_min":18,"x_max":914,"o":"m 18 0 l 463 1039 l 468 1039 l 914 0 l 838 0 l 724 269 l 207 269 l 94 0 l 18 0 m 229 1226 l 323 1226 l 519 1072 l 433 1072 l 229 1226 m 236 334 l 696 334 l 465 878 l 236 334 z "},"Á":{"ha":932,"x_min":18,"x_max":914,"o":"m 18 0 l 463 1039 l 468 1039 l 914 0 l 838 0 l 724 269 l 207 269 l 94 0 l 18 0 m 236 334 l 696 334 l 465 878 l 236 334 m 403 1072 l 597 1226 l 692 1226 l 488 1072 l 403 1072 z "},"Â":{"ha":932,"x_min":18,"x_max":914,"o":"m 18 0 l 463 1039 l 468 1039 l 914 0 l 838 0 l 724 269 l 207 269 l 94 0 l 18 0 m 236 334 l 696 334 l 465 878 l 236 334 m 265 1071 l 465 1258 l 664 1071 l 590 1071 l 465 1189 l 339 1071 l 265 1071 z "},"Ã":{"ha":932,"x_min":18,"x_max":914,"o":"m 18 0 l 463 1039 l 468 1039 l 914 0 l 838 0 l 724 269 l 207 269 l 94 0 l 18 0 m 236 334 l 696 334 l 465 878 l 236 334 m 256 1079 q 289 1206 256 1164 q 375 1249 321 1249 q 425 1236 402 1249 q 463 1204 448 1223 q 492 1168 477 1186 q 523 1137 506 1149 q 558 1124 539 1124 q 624 1239 624 1124 l 675 1239 q 642 1113 675 1155 q 555 1071 609 1071 q 505 1083 528 1071 q 468 1114 483 1096 q 439 1151 453 1133 q 409 1182 426 1169 q 374 1194 393 1194 q 323 1164 337 1194 q 309 1079 309 1133 l 256 1079 z "},"Ä":{"ha":932,"x_min":18,"x_max":914,"o":"m 18 0 l 463 1039 l 468 1039 l 914 0 l 838 0 l 724 269 l 207 269 l 94 0 l 18 0 m 236 334 l 696 334 l 465 878 l 236 334 m 309 1141 q 324 1179 309 1163 q 361 1194 339 1194 q 399 1179 384 1194 q 415 1141 415 1163 q 399 1104 415 1119 q 361 1089 384 1089 q 323 1104 338 1089 q 309 1141 309 1119 m 517 1141 q 532 1179 517 1163 q 570 1194 548 1194 q 608 1179 591 1194 q 624 1141 624 1163 q 608 1104 624 1119 q 570 1089 592 1089 q 532 1104 547 1089 q 517 1141 517 1119 z "},"Å":{"ha":932,"x_min":18,"x_max":914,"o":"m 18 0 l 463 1039 l 468 1039 l 914 0 l 838 0 l 724 269 l 207 269 l 94 0 l 18 0 m 236 334 l 696 334 l 465 878 l 236 334 m 369 1108 q 350 1127 369 1108 q 330 1203 330 1146 q 369 1298 330 1260 q 465 1336 408 1336 q 562 1298 523 1336 q 600 1203 600 1260 q 562 1108 600 1146 q 465 1071 523 1071 q 369 1108 408 1071 m 404 1264 q 391 1252 404 1264 q 379 1203 379 1240 q 404 1143 379 1166 q 465 1120 429 1120 q 527 1143 502 1120 q 551 1203 551 1166 q 527 1264 551 1240 q 465 1289 502 1289 q 404 1264 429 1289 z "},"Æ":{"ha":1180,"x_min":18,"x_max":1143,"o":"m 18 0 l 450 1021 l 1132 1021 l 1132 954 l 515 954 l 684 550 l 1072 550 l 1072 485 l 710 485 l 885 66 l 1143 66 l 1143 0 l 836 0 l 724 271 l 208 271 l 96 0 l 18 0 m 235 332 l 697 332 l 465 890 l 235 332 z "},"Ç":{"ha":943,"x_min":50,"x_max":917,"o":"m 50 510 q 114 781 50 661 q 294 970 178 902 q 554 1039 409 1039 q 907 896 764 1039 l 861 843 q 723 938 802 904 q 554 972 644 972 q 330 912 429 972 q 177 747 231 852 q 122 510 122 642 q 177 273 122 378 q 330 108 231 168 q 554 49 429 49 q 731 85 650 49 q 871 187 812 122 l 917 134 q 554 -18 775 -18 q 548 -18 552 -18 q 542 -17 544 -17 l 530 -90 q 626 -126 589 -94 q 663 -214 663 -159 q 622 -311 663 -277 q 517 -345 581 -345 q 392 -293 433 -345 l 424 -254 q 515 -296 457 -296 q 584 -276 557 -296 q 610 -215 610 -256 q 542 -140 610 -158 q 478 -139 512 -135 l 473 -134 l 493 -16 q 173 151 296 5 q 50 510 50 297 z "},"È":{"ha":779,"x_min":126,"x_max":742,"o":"m 126 0 l 126 1021 l 730 1021 l 730 954 l 197 954 l 197 550 l 669 550 l 669 485 l 197 485 l 197 66 l 742 66 l 742 0 l 126 0 m 200 1226 l 294 1226 l 490 1072 l 404 1072 l 200 1226 z "},"É":{"ha":779,"x_min":126,"x_max":742,"o":"m 126 0 l 126 1021 l 730 1021 l 730 954 l 197 954 l 197 550 l 669 550 l 669 485 l 197 485 l 197 66 l 742 66 l 742 0 l 126 0 m 374 1072 l 568 1226 l 663 1226 l 458 1072 l 374 1072 z "},"Ê":{"ha":779,"x_min":126,"x_max":742,"o":"m 126 0 l 126 1021 l 730 1021 l 730 954 l 197 954 l 197 550 l 669 550 l 669 485 l 197 485 l 197 66 l 742 66 l 742 0 l 126 0 m 235 1071 l 435 1258 l 633 1071 l 559 1071 l 435 1189 l 309 1071 l 235 1071 z "},"Ë":{"ha":779,"x_min":126,"x_max":742,"o":"m 126 0 l 126 1021 l 730 1021 l 730 954 l 197 954 l 197 550 l 669 550 l 669 485 l 197 485 l 197 66 l 742 66 l 742 0 l 126 0 m 278 1141 q 293 1179 278 1163 q 330 1194 309 1194 q 369 1179 353 1194 q 385 1141 385 1163 q 369 1104 385 1119 q 330 1089 353 1089 q 293 1104 308 1089 q 278 1141 278 1119 m 486 1141 q 502 1179 486 1163 q 539 1194 517 1194 q 577 1179 561 1194 q 593 1141 593 1163 q 577 1104 593 1119 q 539 1089 562 1089 q 502 1104 517 1089 q 486 1141 486 1119 z "},"Ì":{"ha":323,"x_min":-74,"x_max":216,"o":"m -74 1226 l 21 1226 l 216 1072 l 131 1072 l -74 1226 m 126 0 l 126 1021 l 197 1021 l 197 0 l 126 0 z "},"Í":{"ha":323,"x_min":98,"x_max":387,"o":"m 98 1072 l 293 1226 l 387 1226 l 183 1072 l 98 1072 m 126 0 l 126 1021 l 197 1021 l 197 0 l 126 0 z "},"Î":{"ha":323,"x_min":-37,"x_max":361,"o":"m -37 1071 l 163 1258 l 361 1071 l 288 1071 l 163 1189 l 36 1071 l -37 1071 m 126 0 l 126 1021 l 197 1021 l 197 0 l 126 0 z "},"Ï":{"ha":323,"x_min":5,"x_max":321,"o":"m 5 1141 q 21 1179 5 1163 q 58 1194 37 1194 q 97 1179 81 1194 q 113 1141 113 1163 q 97 1104 113 1119 q 58 1089 81 1089 q 21 1104 36 1089 q 5 1141 5 1119 m 126 0 l 126 1021 l 197 1021 l 197 0 l 126 0 m 214 1141 q 229 1179 214 1163 q 267 1194 245 1194 q 304 1179 288 1194 q 321 1141 321 1163 q 305 1104 321 1119 q 267 1089 289 1089 q 229 1104 244 1089 q 214 1141 214 1119 z "},"Ð":{"ha":1034,"x_min":26,"x_max":983,"o":"m 26 496 l 26 550 l 153 550 l 153 1021 l 444 1021 q 841 887 699 1021 q 983 511 983 753 q 842 135 983 269 q 444 0 700 0 l 153 0 l 153 496 l 26 496 m 224 66 l 443 66 q 790 183 667 66 q 913 511 913 300 q 789 837 913 721 q 443 953 666 953 l 224 953 l 224 550 l 399 550 l 399 496 l 224 496 l 224 66 z "},"Ñ":{"ha":1002,"x_min":126,"x_max":876,"o":"m 126 0 l 126 1039 l 132 1039 l 806 170 l 806 1021 l 876 1021 l 876 -18 l 871 -18 l 197 852 l 197 0 l 126 0 m 292 1079 q 325 1206 292 1164 q 411 1249 357 1249 q 461 1236 438 1249 q 499 1204 484 1223 q 528 1168 514 1186 q 559 1137 542 1149 q 595 1124 576 1124 q 660 1239 660 1124 l 711 1239 q 678 1113 711 1156 q 591 1071 645 1071 q 541 1083 564 1071 q 504 1114 519 1096 q 475 1151 489 1133 q 445 1182 462 1169 q 410 1194 429 1194 q 359 1164 373 1194 q 345 1079 345 1133 l 292 1079 z "},"Ò":{"ha":1109,"x_min":50,"x_max":1059,"o":"m 50 510 q 115 781 50 661 q 294 970 179 902 q 554 1039 410 1039 q 756 999 662 1039 q 916 889 850 959 q 1021 721 983 819 q 1059 510 1059 623 q 1021 299 1059 397 q 916 131 983 201 q 756 21 850 61 q 554 -18 662 -18 q 352 21 446 -18 q 192 131 258 61 q 88 299 125 201 q 50 510 50 397 m 177 747 q 150 694 177 747 q 122 510 122 642 q 177 273 122 378 q 331 108 232 168 q 554 49 429 49 q 777 108 678 49 q 932 273 876 168 q 987 510 987 378 q 932 747 987 641 q 777 912 876 852 q 554 972 678 972 q 331 912 429 972 q 177 747 232 852 m 318 1240 l 412 1240 l 608 1086 l 522 1086 l 318 1240 z "},"Ó":{"ha":1109,"x_min":50,"x_max":1059,"o":"m 50 510 q 115 781 50 661 q 294 970 179 902 q 554 1039 410 1039 q 756 999 662 1039 q 916 889 850 959 q 1021 721 983 819 q 1059 510 1059 623 q 1021 299 1059 397 q 916 131 983 201 q 756 21 850 61 q 554 -18 662 -18 q 352 21 446 -18 q 192 131 258 61 q 88 299 125 201 q 50 510 50 397 m 177 747 q 150 694 177 747 q 122 510 122 642 q 177 273 122 378 q 331 108 232 168 q 554 49 429 49 q 777 108 678 49 q 932 273 876 168 q 987 510 987 378 q 932 747 987 641 q 777 912 876 852 q 554 972 678 972 q 331 912 429 972 q 177 747 232 852 m 492 1086 l 686 1240 l 781 1240 l 576 1086 l 492 1086 z "},"Ô":{"ha":1109,"x_min":50,"x_max":1059,"o":"m 50 510 q 115 781 50 661 q 294 970 179 902 q 554 1039 410 1039 q 756 999 662 1039 q 916 889 850 959 q 1021 721 983 819 q 1059 510 1059 623 q 1021 299 1059 397 q 916 131 983 201 q 756 21 850 61 q 554 -18 662 -18 q 352 21 446 -18 q 192 131 258 61 q 88 299 125 201 q 50 510 50 397 m 177 747 q 150 694 177 747 q 122 510 122 642 q 177 273 122 378 q 331 108 232 168 q 554 49 429 49 q 777 108 678 49 q 932 273 876 168 q 987 510 987 378 q 932 747 987 641 q 777 912 876 852 q 554 972 678 972 q 331 912 429 972 q 177 747 232 852 m 353 1084 l 553 1272 l 751 1084 l 677 1084 l 553 1203 l 427 1084 l 353 1084 z "},"Õ":{"ha":1109,"x_min":50,"x_max":1059,"o":"m 50 510 q 115 781 50 661 q 294 970 179 902 q 554 1039 410 1039 q 756 999 662 1039 q 916 889 850 959 q 1021 721 983 819 q 1059 510 1059 623 q 1021 299 1059 397 q 916 131 983 201 q 756 21 850 61 q 554 -18 662 -18 q 352 21 446 -18 q 192 131 258 61 q 88 299 125 201 q 50 510 50 397 m 177 747 q 150 694 177 747 q 122 510 122 642 q 177 273 122 378 q 331 108 232 168 q 554 49 429 49 q 777 108 678 49 q 932 273 876 168 q 987 510 987 378 q 932 747 987 641 q 777 912 876 852 q 554 972 678 972 q 331 912 429 972 q 177 747 232 852 m 345 1093 q 377 1220 345 1178 q 464 1263 410 1263 q 514 1250 491 1263 q 551 1219 536 1237 q 581 1182 566 1200 q 611 1150 595 1163 q 647 1137 628 1137 q 713 1253 713 1137 l 764 1253 q 731 1126 764 1168 q 644 1084 698 1084 q 594 1097 616 1084 q 557 1128 572 1110 q 528 1164 542 1146 q 498 1196 515 1183 q 463 1208 481 1208 q 412 1178 426 1208 q 397 1093 397 1147 l 345 1093 z "},"Ö":{"ha":1109,"x_min":50,"x_max":1059,"o":"m 50 510 q 115 781 50 661 q 294 970 179 902 q 554 1039 410 1039 q 756 999 662 1039 q 916 889 850 959 q 1021 721 983 819 q 1059 510 1059 623 q 1021 299 1059 397 q 916 131 983 201 q 756 21 850 61 q 554 -18 662 -18 q 352 21 446 -18 q 192 131 258 61 q 88 299 125 201 q 50 510 50 397 m 177 747 q 150 694 177 747 q 122 510 122 642 q 177 273 122 378 q 331 108 232 168 q 554 49 429 49 q 777 108 678 49 q 932 273 876 168 q 987 510 987 378 q 932 747 987 641 q 777 912 876 852 q 554 972 678 972 q 331 912 429 972 q 177 747 232 852 m 396 1156 q 412 1193 396 1177 q 449 1208 427 1208 q 487 1193 472 1208 q 503 1156 503 1177 q 487 1118 503 1133 q 449 1103 472 1103 q 411 1118 427 1103 q 396 1156 396 1133 m 604 1156 q 620 1193 604 1177 q 657 1208 635 1208 q 695 1193 679 1208 q 711 1156 711 1177 q 695 1118 711 1133 q 657 1103 680 1103 q 620 1118 635 1103 q 604 1156 604 1133 z "},"×":{"ha":581,"x_min":71,"x_max":510,"o":"m 71 313 l 245 486 l 72 660 l 118 704 l 292 532 l 464 704 l 510 660 l 335 486 l 510 313 l 464 268 l 292 441 l 117 268 l 71 313 z "},"Ø":{"ha":1109,"x_min":50,"x_max":1059,"o":"m 50 510 q 115 781 50 661 q 294 970 179 902 q 554 1039 410 1039 q 779 987 676 1039 l 859 1132 l 925 1132 l 831 958 q 998 771 937 888 q 1059 510 1059 654 q 1021 299 1059 397 q 916 131 983 201 q 756 21 850 61 q 554 -18 662 -18 q 328 32 432 -18 l 250 -111 l 182 -111 l 275 61 q 110 248 170 131 q 50 510 50 365 m 122 510 q 172 284 122 385 q 309 122 221 182 l 747 928 q 554 972 656 972 q 331 912 429 972 q 177 747 232 852 q 122 510 122 642 m 359 92 q 554 49 447 49 q 777 108 678 49 q 932 273 876 168 q 987 510 987 378 q 937 735 987 633 q 798 899 886 838 l 359 92 z "},"Ù":{"ha":949,"x_min":114,"x_max":836,"o":"m 114 353 l 114 1021 l 184 1021 l 184 354 q 259 130 184 212 q 475 49 333 49 q 690 130 616 49 q 765 354 765 212 l 765 1021 l 836 1021 l 836 353 q 743 81 836 180 q 475 -18 650 -18 q 207 80 299 -18 q 114 353 114 179 m 239 1226 l 334 1226 l 529 1072 l 443 1072 l 239 1226 z "},"Ú":{"ha":949,"x_min":114,"x_max":836,"o":"m 114 353 l 114 1021 l 184 1021 l 184 354 q 259 130 184 212 q 475 49 333 49 q 690 130 616 49 q 765 354 765 212 l 765 1021 l 836 1021 l 836 353 q 743 81 836 180 q 475 -18 650 -18 q 207 80 299 -18 q 114 353 114 179 m 412 1072 l 607 1226 l 701 1226 l 497 1072 l 412 1072 z "},"Û":{"ha":949,"x_min":114,"x_max":836,"o":"m 114 353 l 114 1021 l 184 1021 l 184 354 q 259 130 184 212 q 475 49 333 49 q 690 130 616 49 q 765 354 765 212 l 765 1021 l 836 1021 l 836 353 q 743 81 836 180 q 475 -18 650 -18 q 207 80 299 -18 q 114 353 114 179 m 275 1071 l 475 1258 l 673 1071 l 600 1071 l 475 1189 l 349 1071 l 275 1071 z "},"Ü":{"ha":949,"x_min":114,"x_max":836,"o":"m 114 353 l 114 1021 l 184 1021 l 184 354 q 259 130 184 212 q 475 49 333 49 q 690 130 616 49 q 765 354 765 212 l 765 1021 l 836 1021 l 836 353 q 743 81 836 180 q 475 -18 650 -18 q 207 80 299 -18 q 114 353 114 179 m 318 1141 q 334 1179 318 1163 q 371 1194 349 1194 q 410 1179 394 1194 q 425 1141 425 1163 q 410 1104 425 1119 q 371 1089 394 1089 q 333 1104 349 1089 q 318 1141 318 1119 m 526 1141 q 542 1179 526 1163 q 579 1194 557 1194 q 617 1179 601 1194 q 633 1141 633 1163 q 617 1104 633 1119 q 579 1089 602 1089 q 542 1104 557 1089 q 526 1141 526 1119 z "},"Ý":{"ha":865,"x_min":14,"x_max":851,"o":"m 14 1019 l 97 1019 l 432 518 l 766 1019 l 851 1019 l 468 446 l 468 0 l 397 0 l 397 446 l 14 1019 m 370 1072 l 564 1226 l 659 1226 l 454 1072 l 370 1072 z "},"Þ":{"ha":732,"x_min":126,"x_max":690,"o":"m 126 0 l 126 1021 l 197 1021 l 197 823 l 387 823 q 502 805 448 823 q 599 754 557 787 q 666 669 641 721 q 690 555 690 618 q 666 442 690 493 q 599 357 641 391 q 502 306 557 323 q 387 288 448 288 l 197 288 l 197 0 l 126 0 m 197 353 l 383 353 q 550 407 481 353 q 618 555 618 461 q 550 704 618 650 q 383 758 481 758 l 197 758 l 197 353 z "},"ß":{"ha":884,"x_min":139,"x_max":758,"o":"m 139 0 l 139 751 q 217 964 139 890 q 421 1039 295 1039 q 614 964 538 1039 q 689 774 689 888 q 648 636 689 691 q 536 557 606 582 q 612 529 576 548 q 683 478 648 510 q 738 395 717 446 q 758 281 758 344 q 676 64 758 147 q 456 -18 595 -18 q 301 22 363 -18 l 323 85 q 384 57 355 66 q 454 47 412 47 q 621 110 556 47 q 686 281 686 172 q 643 421 686 364 q 519 501 599 478 q 383 522 452 522 l 383 575 q 443 581 418 575 q 501 600 467 587 q 618 770 618 650 q 560 918 618 862 q 421 974 503 974 q 265 919 322 974 q 208 753 208 863 l 208 0 l 139 0 z "},"à":{"ha":802,"x_min":49,"x_max":685,"o":"m 49 345 q 139 603 49 502 q 371 704 229 704 q 619 593 532 704 l 621 690 l 685 690 l 685 0 l 621 0 l 619 100 q 371 -14 530 -14 q 139 87 230 -14 q 49 345 49 189 m 191 558 q 154 516 191 558 q 117 345 117 475 q 191 132 117 214 q 379 49 264 49 q 517 83 460 49 q 616 180 573 117 l 616 510 q 517 607 573 573 q 379 642 460 642 q 191 558 264 642 m 168 965 l 260 965 l 458 804 l 376 804 l 168 965 z "},"á":{"ha":802,"x_min":49,"x_max":685,"o":"m 49 345 q 139 603 49 502 q 371 704 229 704 q 619 593 532 704 l 621 690 l 685 690 l 685 0 l 621 0 l 619 100 q 371 -14 530 -14 q 139 87 230 -14 q 49 345 49 189 m 191 558 q 154 516 191 558 q 117 345 117 475 q 191 132 117 214 q 379 49 264 49 q 517 83 460 49 q 616 180 573 117 l 616 510 q 517 607 573 573 q 379 642 460 642 q 191 558 264 642 m 346 804 l 543 965 l 635 965 l 427 804 l 346 804 z "},"â":{"ha":802,"x_min":49,"x_max":685,"o":"m 49 345 q 139 603 49 502 q 371 704 229 704 q 619 593 532 704 l 621 690 l 685 690 l 685 0 l 621 0 l 619 100 q 371 -14 530 -14 q 139 87 230 -14 q 49 345 49 189 m 191 558 q 154 516 191 558 q 117 345 117 475 q 191 132 117 214 q 379 49 264 49 q 517 83 460 49 q 616 180 573 117 l 616 510 q 517 607 573 573 q 379 642 460 642 q 191 558 264 642 m 205 802 l 403 999 l 600 802 l 528 802 l 403 921 l 279 802 l 205 802 z "},"ã":{"ha":802,"x_min":49,"x_max":685,"o":"m 49 345 q 139 603 49 502 q 371 704 229 704 q 619 593 532 704 l 621 690 l 685 690 l 685 0 l 621 0 l 619 100 q 371 -14 530 -14 q 139 87 230 -14 q 49 345 49 189 m 191 558 q 154 516 191 558 q 117 345 117 475 q 191 132 117 214 q 379 49 264 49 q 517 83 460 49 q 616 180 573 117 l 616 510 q 517 607 573 573 q 379 642 460 642 q 191 558 264 642 m 195 804 q 228 931 195 889 q 314 974 260 974 q 364 961 341 974 q 401 930 387 948 q 431 893 416 911 q 461 861 445 874 q 497 848 478 848 q 562 964 562 848 l 614 964 q 581 838 614 880 q 494 796 548 796 q 444 809 467 796 q 407 840 422 821 q 378 876 392 858 q 348 907 365 895 q 313 920 332 920 q 262 889 276 920 q 248 804 248 859 l 195 804 z "},"ä":{"ha":802,"x_min":49,"x_max":685,"o":"m 49 345 q 139 603 49 502 q 371 704 229 704 q 619 593 532 704 l 621 690 l 685 690 l 685 0 l 621 0 l 619 100 q 371 -14 530 -14 q 139 87 230 -14 q 49 345 49 189 m 191 558 q 154 516 191 558 q 117 345 117 475 q 191 132 117 214 q 379 49 264 49 q 517 83 460 49 q 616 180 573 117 l 616 510 q 517 607 573 573 q 379 642 460 642 q 191 558 264 642 m 248 879 q 263 916 248 901 q 300 932 278 932 q 338 916 323 932 q 354 879 354 901 q 338 842 354 857 q 300 827 323 827 q 262 842 277 827 q 248 879 248 857 m 456 879 q 471 916 456 901 q 509 932 487 932 q 546 916 530 932 q 562 879 562 901 q 547 842 562 857 q 509 827 531 827 q 471 842 486 827 q 456 879 456 857 z "},"å":{"ha":802,"x_min":49,"x_max":685,"o":"m 49 345 q 139 603 49 502 q 371 704 229 704 q 619 593 532 704 l 621 690 l 685 690 l 685 0 l 621 0 l 619 100 q 371 -14 530 -14 q 139 87 230 -14 q 49 345 49 189 m 191 558 q 154 516 191 558 q 117 345 117 475 q 191 132 117 214 q 379 49 264 49 q 517 83 460 49 q 616 180 573 117 l 616 510 q 517 607 573 573 q 379 642 460 642 q 191 558 264 642 m 269 928 q 308 1024 269 985 q 404 1063 347 1063 q 500 1024 462 1063 q 539 928 539 985 q 500 834 539 871 q 404 798 462 798 q 308 834 347 798 q 269 928 269 871 m 343 989 q 330 977 343 989 q 318 928 318 964 q 343 868 318 891 q 404 844 368 844 q 466 868 441 844 q 490 928 490 891 q 466 989 490 964 q 404 1014 441 1014 q 343 989 368 1014 z "},"æ":{"ha":1307,"x_min":46,"x_max":1258,"o":"m 46 345 q 136 603 46 502 q 368 704 227 704 q 616 593 529 704 l 618 690 l 679 690 l 682 547 q 788 662 721 621 q 946 704 856 704 q 1114 658 1042 704 q 1222 532 1185 612 q 1258 351 1258 453 l 1258 321 l 690 321 q 765 121 694 194 q 964 47 835 47 q 1101 77 1042 47 q 1197 153 1160 106 l 1246 113 q 1125 19 1197 52 q 965 -14 1053 -14 q 790 27 863 -14 q 681 140 718 68 l 679 0 l 618 0 l 616 100 q 368 -14 527 -14 q 137 87 227 -14 q 46 345 46 189 m 188 558 q 151 516 188 558 q 114 345 114 475 q 188 132 114 214 q 376 49 262 49 q 514 83 458 49 q 614 180 570 117 l 614 510 q 514 607 570 573 q 376 642 458 642 q 188 558 262 642 m 689 380 l 1192 380 q 1122 570 1187 498 q 945 643 1056 643 q 766 571 837 643 q 689 380 696 500 z "},"ç":{"ha":686,"x_min":46,"x_max":657,"o":"m 46 346 q 136 605 46 506 q 385 704 226 704 q 650 561 553 704 l 600 521 q 385 643 522 643 q 184 561 255 643 q 114 346 114 479 q 186 131 114 213 q 389 49 258 49 q 517 83 462 49 q 607 170 573 117 l 657 129 q 543 24 612 61 q 389 -14 475 -14 l 370 -14 l 357 -90 q 452 -126 415 -94 q 489 -214 489 -159 q 448 -311 489 -277 q 343 -345 408 -345 q 218 -293 260 -345 l 250 -254 q 342 -296 283 -296 q 410 -276 384 -296 q 436 -215 436 -256 q 368 -140 436 -158 q 304 -139 338 -135 l 300 -134 l 321 -8 q 118 108 191 12 q 46 346 46 204 z "},"è":{"ha":726,"x_min":46,"x_max":679,"o":"m 46 345 q 136 603 46 502 q 368 704 225 704 q 536 657 465 704 q 643 532 608 610 q 679 353 679 453 l 679 321 l 114 321 q 188 121 117 195 q 386 47 259 47 q 524 77 465 47 q 618 153 582 106 l 667 113 q 386 -14 566 -14 q 137 85 227 -14 q 46 345 46 184 m 114 380 l 612 380 q 543 570 608 498 q 368 643 478 643 q 190 570 260 643 q 114 380 120 497 m 132 965 l 224 965 l 422 804 l 340 804 l 132 965 z "},"é":{"ha":726,"x_min":46,"x_max":679,"o":"m 46 345 q 136 603 46 502 q 368 704 225 704 q 536 657 465 704 q 643 532 608 610 q 679 353 679 453 l 679 321 l 114 321 q 188 121 117 195 q 386 47 259 47 q 524 77 465 47 q 618 153 582 106 l 667 113 q 386 -14 566 -14 q 137 85 227 -14 q 46 345 46 184 m 114 380 l 612 380 q 543 570 608 498 q 368 643 478 643 q 190 570 260 643 q 114 380 120 497 m 310 804 l 507 965 l 599 965 l 390 804 l 310 804 z "},"ê":{"ha":726,"x_min":46,"x_max":679,"o":"m 46 345 q 136 603 46 502 q 368 704 225 704 q 536 657 465 704 q 643 532 608 610 q 679 353 679 453 l 679 321 l 114 321 q 188 121 117 195 q 386 47 259 47 q 524 77 465 47 q 618 153 582 106 l 667 113 q 386 -14 566 -14 q 137 85 227 -14 q 46 345 46 184 m 114 380 l 612 380 q 543 570 608 498 q 368 643 478 643 q 190 570 260 643 q 114 380 120 497 m 170 802 l 367 999 l 564 802 l 492 802 l 367 921 l 243 802 l 170 802 z "},"ë":{"ha":726,"x_min":46,"x_max":679,"o":"m 46 345 q 136 603 46 502 q 368 704 225 704 q 536 657 465 704 q 643 532 608 610 q 679 353 679 453 l 679 321 l 114 321 q 188 121 117 195 q 386 47 259 47 q 524 77 465 47 q 618 153 582 106 l 667 113 q 386 -14 566 -14 q 137 85 227 -14 q 46 345 46 184 m 114 380 l 612 380 q 543 570 608 498 q 368 643 478 643 q 190 570 260 643 q 114 380 120 497 m 210 879 q 225 916 210 901 q 262 932 241 932 q 301 916 286 932 q 317 879 317 901 q 301 842 317 857 q 262 827 286 827 q 225 842 240 827 q 210 879 210 857 m 418 879 q 433 916 418 901 q 471 932 449 932 q 509 916 492 932 q 525 879 525 901 q 509 842 525 857 q 471 827 493 827 q 433 842 448 827 q 418 879 418 857 z "},"ì":{"ha":309,"x_min":-81,"x_max":210,"o":"m -81 965 l 11 965 l 210 804 l 127 804 l -81 965 m 121 0 l 121 690 l 189 690 l 189 0 l 121 0 z "},"í":{"ha":309,"x_min":97,"x_max":386,"o":"m 97 804 l 294 965 l 386 965 l 178 804 l 97 804 m 121 0 l 121 690 l 189 690 l 189 0 l 121 0 z "},"î":{"ha":309,"x_min":-43,"x_max":351,"o":"m -43 802 l 154 999 l 351 802 l 279 802 l 154 921 l 31 802 l -43 802 m 121 0 l 121 690 l 189 690 l 189 0 l 121 0 z "},"ï":{"ha":309,"x_min":-1,"x_max":314,"o":"m -1 879 q 14 916 -1 901 q 52 932 30 932 q 90 916 75 932 q 106 879 106 901 q 90 842 106 857 q 52 827 75 827 q 14 842 29 827 q -1 879 -1 857 m 121 0 l 121 690 l 189 690 l 189 0 l 121 0 m 207 879 q 222 916 207 901 q 260 932 238 932 q 298 916 281 932 q 314 879 314 901 q 298 842 314 857 q 260 827 282 827 q 222 842 237 827 q 207 879 207 857 z "},"ð":{"ha":762,"x_min":49,"x_max":717,"o":"m 49 328 q 143 573 49 476 q 382 671 237 671 q 478 657 427 671 l 353 825 l 121 825 l 121 880 l 311 880 l 180 1055 l 264 1055 l 393 880 l 629 880 l 629 825 l 435 825 l 629 566 q 717 328 717 467 q 622 83 717 179 q 382 -14 527 -14 q 142 82 236 -14 q 49 328 49 178 m 191 530 q 153 490 191 530 q 115 328 115 450 q 191 126 115 205 q 382 46 267 46 q 573 126 497 46 q 648 328 648 205 q 573 530 648 450 q 382 611 497 611 q 191 530 267 611 z "},"ñ":{"ha":791,"x_min":121,"x_max":690,"o":"m 121 0 l 121 690 l 184 690 l 186 590 q 428 704 285 704 q 620 625 550 704 q 690 418 690 547 l 690 0 l 624 0 l 624 414 q 567 576 624 514 q 416 639 510 639 q 293 606 345 639 q 189 509 241 574 l 189 0 l 121 0 m 196 804 q 229 931 196 889 q 315 974 262 974 q 365 961 342 974 q 403 930 388 948 q 432 893 418 911 q 463 861 446 874 q 498 848 479 848 q 564 964 564 848 l 615 964 q 582 838 615 880 q 496 796 549 796 q 446 809 468 796 q 408 840 423 821 q 380 876 393 858 q 350 907 366 895 q 314 920 333 920 q 263 889 277 920 q 249 804 249 859 l 196 804 z "},"ò":{"ha":780,"x_min":46,"x_max":734,"o":"m 46 345 q 143 602 46 500 q 390 704 240 704 q 637 602 539 704 q 734 345 734 500 q 637 87 734 189 q 390 -14 539 -14 q 143 87 240 -14 q 46 345 46 189 m 114 345 q 192 132 114 215 q 390 49 269 49 q 588 132 510 49 q 667 345 667 216 q 588 557 667 473 q 390 642 510 642 q 192 557 269 642 q 114 345 114 473 m 154 965 l 245 965 l 444 804 l 363 804 l 154 965 z "},"ó":{"ha":780,"x_min":46,"x_max":734,"o":"m 46 345 q 143 602 46 500 q 390 704 240 704 q 637 602 539 704 q 734 345 734 500 q 637 87 734 189 q 390 -14 539 -14 q 143 87 240 -14 q 46 345 46 189 m 114 345 q 192 132 114 215 q 390 49 269 49 q 588 132 510 49 q 667 345 667 216 q 588 557 667 473 q 390 642 510 642 q 192 557 269 642 q 114 345 114 473 m 332 804 l 529 965 l 621 965 l 412 804 l 332 804 z "},"ô":{"ha":780,"x_min":46,"x_max":734,"o":"m 46 345 q 143 602 46 500 q 390 704 240 704 q 637 602 539 704 q 734 345 734 500 q 637 87 734 189 q 390 -14 539 -14 q 143 87 240 -14 q 46 345 46 189 m 114 345 q 192 132 114 215 q 390 49 269 49 q 588 132 510 49 q 667 345 667 216 q 588 557 667 473 q 390 642 510 642 q 192 557 269 642 q 114 345 114 473 m 192 802 l 389 999 l 586 802 l 514 802 l 389 921 l 265 802 l 192 802 z "},"õ":{"ha":780,"x_min":46,"x_max":734,"o":"m 46 345 q 143 602 46 500 q 390 704 240 704 q 637 602 539 704 q 734 345 734 500 q 637 87 734 189 q 390 -14 539 -14 q 143 87 240 -14 q 46 345 46 189 m 114 345 q 192 132 114 215 q 390 49 269 49 q 588 132 510 49 q 667 345 667 216 q 588 557 667 473 q 390 642 510 642 q 192 557 269 642 q 114 345 114 473 m 180 804 q 213 931 180 889 q 300 974 246 974 q 350 961 327 974 q 388 930 372 948 q 417 893 403 911 q 448 861 431 874 q 484 848 465 848 q 549 964 549 848 l 600 964 q 567 838 600 880 q 481 796 534 796 q 431 809 453 796 q 393 840 408 821 q 364 876 378 858 q 334 907 351 895 q 298 920 317 920 q 248 889 262 920 q 233 804 233 859 l 180 804 z "},"ö":{"ha":780,"x_min":46,"x_max":734,"o":"m 46 345 q 143 602 46 500 q 390 704 240 704 q 637 602 539 704 q 734 345 734 500 q 637 87 734 189 q 390 -14 539 -14 q 143 87 240 -14 q 46 345 46 189 m 114 345 q 192 132 114 215 q 390 49 269 49 q 588 132 510 49 q 667 345 667 216 q 588 557 667 473 q 390 642 510 642 q 192 557 269 642 q 114 345 114 473 m 232 879 q 248 916 232 901 q 285 932 263 932 q 323 916 308 932 q 339 879 339 901 q 323 842 339 857 q 285 827 308 827 q 247 842 262 827 q 232 879 232 857 m 440 879 q 456 916 440 901 q 493 932 471 932 q 531 916 515 932 q 547 879 547 901 q 531 842 547 857 q 493 827 515 827 q 455 842 471 827 q 440 879 440 857 z "},"÷":{"ha":637,"x_min":60,"x_max":576,"o":"m 60 454 l 60 518 l 576 518 l 576 454 l 60 454 m 278 205 q 270 213 278 205 q 262 244 262 220 q 278 284 262 268 q 318 301 294 301 q 359 285 342 301 q 375 244 375 269 q 359 205 375 220 q 318 189 342 189 q 278 205 294 189 m 278 687 q 270 695 278 687 q 262 726 262 703 q 278 767 262 750 q 318 783 294 783 q 359 767 342 783 q 375 726 375 751 q 358 687 375 703 q 318 671 342 671 q 278 687 294 671 z "},"ø":{"ha":780,"x_min":46,"x_max":734,"o":"m 46 345 q 143 602 46 500 q 390 704 240 704 q 541 671 470 704 l 603 787 l 660 787 l 583 647 q 694 520 654 600 q 734 345 734 441 q 637 87 734 189 q 390 -14 539 -14 q 241 17 311 -14 l 180 -97 l 123 -97 l 199 40 q 86 166 127 87 q 46 345 46 245 m 111 345 q 142 200 111 264 q 228 96 173 135 l 511 618 q 390 644 455 644 q 190 559 269 644 q 111 345 111 474 m 271 71 q 390 46 322 46 q 590 130 511 46 q 668 345 668 214 q 637 487 668 422 q 553 591 607 551 l 271 71 z "},"ù":{"ha":774,"x_min":102,"x_max":654,"o":"m 102 268 l 102 690 l 170 690 l 170 271 q 221 112 170 172 q 357 52 272 52 q 485 84 433 52 q 586 180 536 116 l 586 690 l 654 690 l 654 0 l 590 0 l 589 98 q 346 -14 494 -14 q 167 63 233 -14 q 102 268 102 140 m 140 965 l 232 965 l 431 804 l 349 804 l 140 965 z "},"ú":{"ha":774,"x_min":102,"x_max":654,"o":"m 102 268 l 102 690 l 170 690 l 170 271 q 221 112 170 172 q 357 52 272 52 q 485 84 433 52 q 586 180 536 116 l 586 690 l 654 690 l 654 0 l 590 0 l 589 98 q 346 -14 494 -14 q 167 63 233 -14 q 102 268 102 140 m 319 804 l 517 965 l 608 965 l 400 804 l 319 804 z "},"û":{"ha":774,"x_min":102,"x_max":654,"o":"m 102 268 l 102 690 l 170 690 l 170 271 q 221 112 170 172 q 357 52 272 52 q 485 84 433 52 q 586 180 536 116 l 586 690 l 654 690 l 654 0 l 590 0 l 589 98 q 346 -14 494 -14 q 167 63 233 -14 q 102 268 102 140 m 179 802 l 376 999 l 574 802 l 501 802 l 376 921 l 253 802 l 179 802 z "},"ü":{"ha":774,"x_min":102,"x_max":654,"o":"m 102 268 l 102 690 l 170 690 l 170 271 q 221 112 170 172 q 357 52 272 52 q 485 84 433 52 q 586 180 536 116 l 586 690 l 654 690 l 654 0 l 590 0 l 589 98 q 346 -14 494 -14 q 167 63 233 -14 q 102 268 102 140 m 220 879 q 235 916 220 901 q 272 932 250 932 q 311 916 295 932 q 326 879 326 901 q 311 842 326 857 q 272 827 295 827 q 235 842 250 827 q 220 879 220 857 m 428 879 q 444 916 428 901 q 481 932 459 932 q 518 916 503 932 q 534 879 534 901 q 519 842 534 857 q 481 827 503 827 q 443 842 458 827 q 428 879 428 857 z "},"ý":{"ha":729,"x_min":31,"x_max":699,"o":"m 31 690 l 104 690 l 364 126 l 624 690 l 699 690 l 227 -319 l 150 -319 l 328 50 l 31 690 m 302 804 l 500 965 l 591 965 l 383 804 l 302 804 z "},"þ":{"ha":802,"x_min":121,"x_max":757,"o":"m 121 -319 l 121 1055 l 189 1055 l 189 595 q 435 704 277 704 q 667 603 576 704 q 757 346 757 503 q 667 88 757 189 q 435 -14 576 -14 q 189 94 276 -14 l 189 -319 l 121 -319 m 189 180 q 289 83 233 117 q 427 49 345 49 q 615 132 541 49 q 689 346 689 216 q 615 559 689 476 q 427 642 541 642 q 289 607 345 642 q 189 510 233 573 l 189 180 z "},"ÿ":{"ha":729,"x_min":31,"x_max":699,"o":"m 31 690 l 104 690 l 364 126 l 624 690 l 699 690 l 227 -319 l 150 -319 l 328 50 l 31 690 m 203 879 q 218 916 203 901 q 256 932 234 932 q 294 916 279 932 q 310 879 310 901 q 294 842 310 857 q 256 827 279 827 q 218 842 233 827 q 203 879 203 857 m 411 879 q 427 916 411 901 q 464 932 442 932 q 502 916 486 932 q 518 879 518 901 q 502 842 518 857 q 464 827 486 827 q 426 842 441 827 q 411 879 411 857 z "},"Œ":{"ha":1629,"x_min":50,"x_max":1603,"o":"m 50 510 q 115 781 50 661 q 294 970 179 902 q 554 1039 410 1039 q 811 969 696 1039 q 987 778 925 899 l 987 1021 l 1592 1021 l 1592 954 l 1059 954 l 1059 550 l 1531 550 l 1531 485 l 1059 485 l 1059 66 l 1603 66 l 1603 0 l 987 0 l 987 241 q 811 51 925 121 q 554 -18 697 -18 q 352 21 446 -18 q 192 131 258 61 q 88 299 125 201 q 50 510 50 397 m 177 747 q 150 694 177 747 q 122 510 122 642 q 177 273 122 378 q 331 108 232 168 q 554 49 429 49 q 777 108 678 49 q 932 273 876 168 q 987 510 987 378 l 987 529 q 926 757 983 656 q 772 915 869 858 q 554 972 674 972 q 331 912 429 972 q 177 747 232 852 z "},"œ":{"ha":1348,"x_min":46,"x_max":1300,"o":"m 46 345 q 143 602 46 500 q 390 704 240 704 q 575 652 494 704 q 699 510 657 600 q 813 652 737 600 q 989 704 888 704 q 1157 657 1086 704 q 1264 532 1228 610 q 1300 353 1300 453 l 1300 321 l 734 321 q 809 121 738 195 q 1007 47 880 47 q 1145 77 1086 47 q 1239 153 1203 106 l 1287 113 q 1007 -14 1186 -14 q 815 37 895 -14 q 697 178 736 87 q 575 38 656 89 q 390 -14 494 -14 q 143 87 240 -14 q 46 345 46 189 m 114 345 q 192 132 114 215 q 390 49 269 49 q 588 132 510 49 q 667 345 667 216 l 667 357 q 584 561 663 480 q 390 642 506 642 q 192 557 269 642 q 114 345 114 473 m 734 380 l 1234 380 q 1164 570 1230 498 q 989 643 1099 643 q 810 570 880 643 q 734 380 741 497 z "},"Ÿ":{"ha":865,"x_min":14,"x_max":851,"o":"m 14 1019 l 97 1019 l 432 518 l 766 1019 l 851 1019 l 468 446 l 468 0 l 397 0 l 397 446 l 14 1019 m 273 1141 q 289 1179 273 1163 q 326 1194 304 1194 q 365 1179 349 1194 q 380 1141 380 1163 q 365 1104 380 1119 q 326 1089 349 1089 q 289 1104 304 1089 q 273 1141 273 1119 m 482 1141 q 497 1179 482 1163 q 534 1194 513 1194 q 572 1179 556 1194 q 589 1141 589 1163 q 573 1104 589 1119 q 534 1089 557 1089 q 497 1104 512 1089 q 482 1141 482 1119 z "},"ˆ":{"ha":459,"x_min":32,"x_max":427,"o":"m 32 802 l 229 999 l 427 802 l 354 802 l 229 921 l 106 802 l 32 802 z "},"˜":{"ha":483,"x_min":32,"x_max":452,"o":"m 32 804 q 65 931 32 889 q 151 974 98 974 q 201 961 178 974 q 239 930 224 948 q 268 893 254 911 q 299 861 282 874 q 335 848 316 848 q 400 964 400 848 l 452 964 q 418 838 452 880 q 332 796 385 796 q 281 809 304 796 q 244 840 259 821 q 216 876 229 858 q 185 907 202 895 q 150 920 169 920 q 99 889 113 920 q 85 804 85 859 l 32 804 z "}," ":{"ha":668,"x_min":0,"x_max":0,"o":""}," ":{"ha":1336,"x_min":0,"x_max":0,"o":""}," ":{"ha":668,"x_min":0,"x_max":0,"o":""}," ":{"ha":1336,"x_min":0,"x_max":0,"o":""}," ":{"ha":445,"x_min":0,"x_max":0,"o":""}," ":{"ha":334,"x_min":0,"x_max":0,"o":""}," ":{"ha":222,"x_min":0,"x_max":0,"o":""}," ":{"ha":222,"x_min":0,"x_max":0,"o":""}," ":{"ha":167,"x_min":0,"x_max":0,"o":""}," ":{"ha":267,"x_min":0,"x_max":0,"o":""}," ":{"ha":74,"x_min":0,"x_max":0,"o":""},"‐":{"ha":615,"x_min":60,"x_max":554,"o":"m 60 326 l 60 392 l 554 392 l 554 326 l 60 326 z "},"‑":{"ha":615,"x_min":60,"x_max":554,"o":"m 60 326 l 60 392 l 554 392 l 554 326 l 60 326 z "},"‒":{"ha":615,"x_min":60,"x_max":554,"o":"m 60 326 l 60 392 l 554 392 l 554 326 l 60 326 z "},"–":{"ha":780,"x_min":60,"x_max":720,"o":"m 60 326 l 60 392 l 720 392 l 720 326 l 60 326 z "},"—":{"ha":1119,"x_min":60,"x_max":1060,"o":"m 60 326 l 60 392 l 1060 392 l 1060 326 l 60 326 z "},"‘":{"ha":219,"x_min":60,"x_max":146,"o":"m 60 815 q 69 850 60 831 l 140 1047 l 146 1047 l 146 753 q 126 750 139 750 q 79 768 98 750 q 60 815 60 787 z "},"’":{"ha":219,"x_min":74,"x_max":160,"o":"m 74 737 l 74 1032 q 94 1035 81 1035 q 141 1017 123 1035 q 160 970 160 998 q 151 935 160 958 l 79 737 l 74 737 z "},"‚":{"ha":219,"x_min":74,"x_max":160,"o":"m 74 111 q 94 114 87 114 q 141 95 122 114 q 160 47 160 76 q 151 14 160 37 l 79 -183 l 74 -183 l 74 111 z "},"“":{"ha":437,"x_min":60,"x_max":363,"o":"m 60 815 q 69 850 60 831 l 140 1047 l 146 1047 l 146 753 q 126 750 139 750 q 79 768 98 750 q 60 815 60 787 m 277 815 q 286 850 277 831 l 357 1047 l 363 1047 l 363 753 q 343 750 356 750 q 296 768 315 750 q 277 815 277 787 z "},"”":{"ha":437,"x_min":74,"x_max":376,"o":"m 74 737 l 74 1032 q 94 1035 81 1035 q 141 1017 123 1035 q 160 970 160 998 q 151 935 160 958 l 79 737 l 74 737 m 290 737 l 290 1032 q 311 1035 297 1035 q 358 1017 340 1035 q 376 970 376 998 q 368 935 376 956 l 296 737 l 290 737 z "},"„":{"ha":443,"x_min":74,"x_max":382,"o":"m 74 111 q 94 114 87 114 q 141 95 122 114 q 160 47 160 76 q 151 14 160 37 l 79 -183 l 74 -183 l 74 111 m 296 111 q 317 114 309 114 q 363 95 345 114 q 382 47 382 77 q 374 14 382 35 l 301 -183 l 296 -183 l 296 111 z "},"•":{"ha":410,"x_min":58,"x_max":351,"o":"m 58 358 q 99 464 58 422 q 204 505 140 505 q 310 464 269 505 q 351 358 351 422 q 310 253 351 294 q 204 212 269 212 q 99 253 140 212 q 58 358 58 294 z "},"…":{"ha":793,"x_min":54,"x_max":737,"o":"m 74 5 q 64 14 74 5 q 54 52 54 24 q 74 98 54 79 q 121 117 93 117 q 168 98 149 117 q 186 52 186 80 q 167 5 186 24 q 121 -14 149 -14 q 74 5 93 -14 m 349 5 q 340 14 349 5 q 330 52 330 24 q 349 98 330 79 q 396 117 368 117 q 444 98 425 117 q 463 52 463 80 q 443 5 463 24 q 396 -14 424 -14 q 349 5 368 -14 m 626 5 q 616 14 626 5 q 607 52 607 24 q 626 98 607 79 q 672 117 644 117 q 719 98 701 117 q 737 52 737 80 q 719 5 737 24 q 672 -14 700 -14 q 626 5 644 -14 z "}," ":{"ha":267,"x_min":0,"x_max":0,"o":""},"‹":{"ha":418,"x_min":21,"x_max":397,"o":"m 21 353 l 21 358 l 311 636 l 397 636 l 106 355 l 397 75 l 311 75 l 21 353 z "},"›":{"ha":418,"x_min":21,"x_max":397,"o":"m 21 75 l 313 355 l 21 636 l 109 636 l 397 358 l 397 353 l 109 75 l 21 75 z "}," ":{"ha":334,"x_min":0,"x_max":0,"o":""},"€":{"ha":905,"x_min":54,"x_max":848,"o":"m 54 366 l 54 421 l 142 421 q 138 510 138 463 q 142 600 138 557 l 54 600 l 54 656 l 149 656 q 284 937 180 836 q 543 1039 388 1039 q 716 1007 647 1039 q 840 920 785 975 l 796 869 q 691 945 749 917 q 543 974 633 974 q 335 889 420 974 q 222 656 250 804 l 583 656 l 583 600 l 214 600 q 210 510 210 557 q 214 421 210 463 l 583 421 l 583 366 l 222 366 q 337 131 252 216 q 547 46 422 46 q 695 75 635 46 q 806 153 755 103 l 848 102 q 719 13 789 45 q 547 -20 648 -20 q 286 83 391 -20 q 149 366 180 186 l 54 366 z "},"™":{"ha":1114,"x_min":29,"x_max":1060,"o":"m 29 965 l 29 1021 l 467 1021 l 467 965 l 275 965 l 275 498 l 220 498 l 220 965 l 29 965 m 546 498 l 546 1031 l 549 1031 l 803 597 l 1057 1031 l 1060 1031 l 1060 498 l 1003 498 l 1003 846 l 804 497 l 800 497 l 602 846 l 602 498 l 546 498 z "},"◼":{"ha":687,"x_min":0,"x_max":688,"o":"m 0 0 l 0 688 l 688 688 l 688 0 l 0 0 z "},"ﬁ":{"ha":765,"x_min":28,"x_max":668,"o":"m 28 629 l 28 690 l 155 690 l 155 833 q 210 992 155 930 q 355 1055 265 1055 q 471 1022 422 1055 l 446 966 q 357 993 411 993 q 259 948 295 993 q 222 835 222 904 l 222 690 l 429 690 l 429 629 l 222 629 l 222 0 l 155 0 l 155 629 l 28 629 m 553 918 q 569 959 553 942 q 610 975 586 975 q 651 959 633 975 q 668 918 668 942 q 651 878 668 894 q 610 861 634 861 q 569 878 585 861 q 553 918 553 894 m 575 0 l 575 690 l 643 690 l 643 0 l 575 0 z "}}}
